<svg width="1214" height="280" viewBox="0 0 1214 280" fill="none" xmlns="http://www.w3.org/2000/svg">
<mask id="mask0_1_15899" style="mask-type:alpha" maskUnits="userSpaceOnUse" x="0" y="0" width="1214" height="280">
<rect opacity="0.8" width="1214" height="280" rx="30" fill="#6C5FBC"/>
</mask>
<g mask="url(#mask0_1_15899)">
<g opacity="0.25">
<path d="M468.318 140.952C464.434 144.719 459.145 147.009 453.31 146.966C447.513 146.923 442.224 144.59 438.282 140.781" stroke="#1C186C" stroke-width="4.63957" stroke-linecap="round" stroke-linejoin="round"/>
<path d="M439.22 149.619C443.416 152.401 448.236 153.985 453.349 154.028C459.341 154.07 464.903 151.973 469.528 148.335C471.402 146.858 471.929 143.969 470.719 141.743L469.45 139.41L464.2 129.908C464.2 129.908 460.473 123.145 456.96 116.768C455.262 113.686 451.32 113.643 449.641 116.682L437.151 139.239L435.921 141.465C434.711 143.669 435.258 146.601 437.17 148.099C437.814 148.656 438.517 149.148 439.22 149.619Z" stroke="#1C186C" stroke-width="4.63957" stroke-linecap="round" stroke-linejoin="round"/>
<path d="M446.344 136.521C445.875 136.307 445.348 136.307 444.88 136.521C444.626 136.628 444.431 136.778 444.236 136.971C443.885 137.377 443.67 137.912 443.67 138.469C443.67 139.047 443.865 139.56 444.236 139.967C444.607 140.374 445.075 140.588 445.602 140.588C446.129 140.588 446.597 140.374 446.968 139.967C447.339 139.56 447.534 139.025 447.534 138.469C447.534 137.912 447.319 137.377 446.968 136.971C446.793 136.757 446.578 136.607 446.344 136.521Z" fill="#201D67"/>
<path d="M454.033 138.619C453.565 138.405 453.038 138.405 452.569 138.619C452.335 138.726 452.12 138.875 451.925 139.068C451.574 139.475 451.359 140.01 451.359 140.566C451.359 141.144 451.555 141.658 451.925 142.064C452.296 142.471 452.765 142.685 453.291 142.685C453.818 142.685 454.287 142.471 454.658 142.064C455.028 141.658 455.224 141.144 455.224 140.566C455.224 140.01 455.009 139.475 454.658 139.068C454.482 138.875 454.287 138.726 454.033 138.619Z" fill="#201D67"/>
<path d="M462.387 136.949C461.665 136.157 460.377 136.157 459.655 136.949C459.304 137.356 459.089 137.891 459.089 138.447C459.089 139.025 459.284 139.538 459.655 139.945C460.026 140.352 460.494 140.566 461.021 140.566C461.275 140.566 461.528 140.502 461.743 140.395C461.977 140.288 462.192 140.138 462.387 139.945C462.758 139.538 462.953 139.025 462.953 138.447C462.934 137.912 462.719 137.356 462.387 136.949Z" fill="#201D67"/>
<path d="M458.933 129.201C458.835 128.923 458.698 128.709 458.523 128.495C457.801 127.703 456.513 127.703 455.791 128.495C455.615 128.709 455.478 128.923 455.381 129.201C455.283 129.458 455.225 129.737 455.225 129.993C455.225 130.272 455.283 130.55 455.381 130.785C455.478 131.042 455.615 131.277 455.791 131.491C456.161 131.898 456.63 132.112 457.157 132.112C457.41 132.112 457.664 132.048 457.879 131.941C458.113 131.834 458.328 131.684 458.523 131.491C458.894 131.085 459.089 130.571 459.089 129.993C459.089 129.737 459.03 129.458 458.933 129.201Z" fill="#201D67"/>
<path d="M451.224 129.201C451.126 128.945 450.99 128.709 450.814 128.495C450.072 127.703 448.784 127.703 448.082 128.495C447.906 128.709 447.769 128.923 447.672 129.201C447.574 129.458 447.516 129.737 447.516 129.993C447.516 130.571 447.711 131.085 448.082 131.491C448.277 131.684 448.491 131.834 448.726 131.941C448.96 132.048 449.214 132.112 449.467 132.112C449.994 132.112 450.463 131.898 450.833 131.491C451.009 131.277 451.146 131.042 451.243 130.785C451.36 130.528 451.399 130.25 451.399 129.993C451.38 129.737 451.341 129.458 451.224 129.201Z" fill="#201D67"/>
<path d="M451.945 123.06C452.316 123.467 452.784 123.681 453.311 123.681C453.565 123.681 453.818 123.616 454.033 123.509C454.267 123.402 454.482 123.253 454.677 123.06C454.853 122.846 454.989 122.611 455.087 122.354C455.185 122.097 455.243 121.819 455.243 121.562C455.243 120.984 455.028 120.47 454.677 120.064C454.131 119.486 453.291 119.272 452.569 119.614C452.316 119.721 452.12 119.871 451.925 120.064C451.574 120.47 451.359 121.005 451.359 121.562C451.359 121.84 451.418 122.118 451.516 122.354C451.633 122.611 451.769 122.846 451.945 123.06Z" fill="#201D67"/>
<path d="M933.854 46.3139C931.493 51.7927 926.419 55.5808 920.525 55.5808C912.387 55.5808 905.771 48.3257 905.771 39.4012C905.771 31.4613 911.001 24.8482 917.91 23.4785C918.144 28.2939 921.364 32.2531 925.579 33.1306C925.501 33.7084 925.443 34.3077 925.443 34.9069C925.443 40.5141 929.053 45.201 933.854 46.3139Z" stroke="#1C186C" stroke-width="4.63957" stroke-linecap="round" stroke-linejoin="round"/>
<path d="M914.416 30.5845C913.226 30.5845 912.25 31.6545 912.25 32.96C912.25 34.2655 913.226 35.3356 914.416 35.3356C915.607 35.3356 916.583 34.2655 916.583 32.96C916.583 31.6331 915.607 30.5845 914.416 30.5845Z" fill="#201D67"/>
<path d="M909.635 18.1929C908.445 18.1929 907.469 19.2629 907.469 20.5684C907.469 21.8739 908.445 22.944 909.635 22.944C910.826 22.944 911.801 21.8739 911.801 20.5684C911.782 19.2415 910.826 18.1929 909.635 18.1929Z" fill="#201D67"/>
<path d="M920.72 37.8813C919.529 37.8813 918.554 38.9514 918.554 40.2569C918.554 41.5624 919.529 42.6325 920.72 42.6325C921.91 42.6325 922.886 41.5624 922.886 40.2569C922.886 38.93 921.91 37.8813 920.72 37.8813Z" fill="#201D67"/>
<path d="M922.594 47.4058C922.594 47.4058 922.184 47.6626 921.658 48.005C921.15 48.326 920.721 48.6042 920.721 48.6042C920.721 48.6042 921.131 48.3474 921.658 48.005C922.165 47.6626 922.594 47.4058 922.594 47.4058Z" stroke="#1C186C" stroke-width="4.63957" stroke-linecap="round" stroke-linejoin="round"/>
<path d="M912.659 41.2637C912.659 41.2637 913.108 41.4777 913.654 41.7345C914.201 41.9913 914.65 42.2053 914.65 42.2053C914.65 42.2053 914.201 41.9913 913.654 41.7345C913.108 41.4777 912.659 41.2637 912.659 41.2637Z" stroke="#1C186C" stroke-width="4.63957" stroke-linecap="round" stroke-linejoin="round"/>
<path d="M902.979 27.8023C902.979 27.8023 903.331 27.4385 903.76 26.989C904.189 26.5396 904.541 26.1758 904.541 26.1758C904.541 26.1758 904.189 26.5396 903.76 26.989C903.331 27.4385 902.979 27.8023 902.979 27.8023Z" stroke="#1C186C" stroke-width="4.63957" stroke-linecap="round" stroke-linejoin="round"/>
<path d="M901.007 39.723C898.978 37.1976 897.748 33.9018 897.748 30.285C897.748 22.3878 903.583 15.9888 910.785 15.9888C916.601 15.9888 921.538 20.1621 923.217 25.9405" stroke="#1C186C" stroke-width="4.63957" stroke-linecap="round" stroke-linejoin="round"/>
<path d="M532.54 204.578C531.287 204.272 529.984 204.316 528.749 204.705C527.515 205.094 526.39 205.815 525.475 206.803C525.088 207.242 524.871 207.83 524.871 208.441C524.871 209.052 525.088 209.639 525.475 210.078L527.7 212.603" stroke="#1C186C" stroke-width="4.63957" stroke-linecap="round" stroke-linejoin="round"/>
<path d="M547.099 220.821C547.367 222.213 547.315 223.656 546.947 225.02C546.579 226.383 545.907 227.625 544.991 228.633C544.797 228.848 544.566 229.018 544.311 229.135C544.057 229.251 543.784 229.311 543.508 229.311C543.232 229.311 542.959 229.251 542.704 229.135C542.45 229.018 542.219 228.848 542.025 228.633L539.761 226.107" stroke="#1C186C" stroke-width="4.63957" stroke-linecap="round" stroke-linejoin="round"/>
<path d="M529.242 226.621C530.047 228.017 530.473 229.635 530.472 231.287C530.471 232.401 530.269 233.505 529.877 234.534C529.485 235.562 528.911 236.495 528.188 237.279C528.052 237.414 527.875 237.489 527.691 237.489C527.507 237.489 527.329 237.414 527.193 237.279C526.555 236.57 526.045 235.735 525.69 234.818C525.368 234.147 525.144 233.425 525.027 232.678C524.982 232.223 524.982 231.763 525.027 231.308C525.377 229.227 526.345 227.331 527.778 225.915C526.45 227.449 524.704 228.47 522.802 228.826C522.386 228.869 521.968 228.869 521.553 228.826C520.87 228.679 520.212 228.42 519.601 228.055C518.761 227.618 518.006 227.008 517.376 226.257C517.253 226.108 517.185 225.913 517.185 225.712C517.185 225.51 517.253 225.315 517.376 225.166C518.837 223.6 520.798 222.724 522.841 222.726C524.339 222.737 525.802 223.22 527.056 224.117" stroke="#1C186C" stroke-width="4.63957" stroke-linecap="round" stroke-linejoin="round"/>
<path d="M551.628 199.848C551.396 199.557 551.134 199.299 550.847 199.077C550.044 198.516 549.147 198.136 548.209 197.96C547.271 197.784 546.31 197.814 545.382 198.05C543.191 198.413 541.076 199.203 539.137 200.383C535.493 202.313 532.431 205.351 530.316 209.136C528.441 212.941 527.38 217.163 527.213 221.484C527.213 221.784 526.881 224.031 527.096 224.181L529.262 226.621C529.399 226.856 531.428 226.621 531.702 226.514C535.661 226.4 539.543 225.279 543.04 223.239C546.51 220.992 549.305 217.682 551.081 213.716C552.799 209.799 554.75 203.571 551.628 199.848Z" stroke="#1C186C" stroke-width="4.63957" stroke-linecap="round" stroke-linejoin="round"/>
<path d="M538.042 202.331C538.834 205.251 540.26 207.917 542.199 210.099C544.146 212.276 546.552 213.893 549.205 214.808" stroke="#1C186C" stroke-width="4.63957" stroke-linecap="round" stroke-linejoin="round"/>
<path d="M546.475 202.394C546.293 202.187 546.075 202.022 545.833 201.91C545.592 201.797 545.332 201.739 545.07 201.739C544.807 201.739 544.548 201.797 544.306 201.91C544.065 202.022 543.847 202.187 543.665 202.394C543.399 202.697 543.22 203.078 543.151 203.491C543.081 203.904 543.124 204.33 543.274 204.717C543.423 205.103 543.674 205.433 543.993 205.664C544.312 205.896 544.687 206.02 545.07 206.02C545.453 206.02 545.827 205.896 546.147 205.664C546.466 205.433 546.716 205.103 546.866 204.717C547.016 204.33 547.058 203.904 546.989 203.491C546.919 203.078 546.741 202.697 546.475 202.394Z" fill="#201D67"/>
<path d="M730.182 215.428L738.203 239.633L746.224 215.428" stroke="#1C186C" stroke-width="4.63957" stroke-linecap="round" stroke-linejoin="round"/>
<path d="M750.244 214.337C749.912 214.337 749.62 214.358 749.346 214.401C747.2 214.786 746.907 216.541 744.214 216.541C741.189 216.541 741.189 214.337 738.203 214.337C735.178 214.337 735.178 216.541 732.192 216.541C729.498 216.541 729.225 214.808 727.059 214.401C726.805 214.358 726.493 214.337 726.161 214.337" stroke="#1C186C" stroke-width="4.63957" stroke-linecap="round" stroke-linejoin="round"/>
<path d="M748.235 211.041C748.235 212.197 748.078 213.353 747.747 214.401C745.893 214.787 745.658 216.542 743.355 216.542C740.76 216.542 740.76 214.337 738.203 214.337C735.608 214.337 735.608 216.542 733.051 216.542C730.748 216.542 730.494 214.808 728.66 214.401C728.348 213.353 728.172 212.197 728.172 211.041C728.172 204.963 732.661 200.041 738.203 200.041C743.746 200.041 748.235 204.963 748.235 211.041Z" stroke="#1C186C" stroke-width="4.63957" stroke-linecap="round" stroke-linejoin="round"/>
<path d="M748.235 217.634H728.172" stroke="#1C186C" stroke-width="4.63957" stroke-linecap="round" stroke-linejoin="round"/>
<path d="M936.683 218.551H922.241V220.82H936.683V218.551Z" stroke="#1C186C" stroke-width="4.63957" stroke-linecap="round" stroke-linejoin="round"/>
<path d="M945.427 200.446C946.754 200.446 947.769 201.816 947.456 203.228C945.407 212.025 938.128 218.531 929.463 218.531C920.797 218.531 913.518 212.025 911.469 203.228C911.137 201.816 912.152 200.446 913.498 200.446H945.427V200.446Z" stroke="#1C186C" stroke-width="4.63957" stroke-linecap="round" stroke-linejoin="round"/>
<path d="M921.675 200.446C923.949 200.446 925.792 198.424 925.792 195.93C925.792 193.436 923.949 191.415 921.675 191.415C919.4 191.415 917.557 193.436 917.557 195.93C917.557 198.424 919.4 200.446 921.675 200.446Z" stroke="#1C186C" stroke-width="4.63957" stroke-linecap="round" stroke-linejoin="round"/>
<path d="M937.249 200.105C939.523 200.105 941.367 198.083 941.367 195.589C941.367 193.095 939.523 191.073 937.249 191.073C934.974 191.073 933.131 193.095 933.131 195.589C933.131 198.083 934.974 200.105 937.249 200.105Z" stroke="#1C186C" stroke-width="4.63957" stroke-linecap="round" stroke-linejoin="round"/>
<path d="M930.107 200.126C931.821 200.126 933.21 198.602 933.21 196.723C933.21 194.844 931.821 193.32 930.107 193.32C928.393 193.32 927.004 194.844 927.004 196.723C927.004 198.602 928.393 200.126 930.107 200.126Z" stroke="#1C186C" stroke-width="4.63957" stroke-linecap="round" stroke-linejoin="round"/>
<path d="M919.431 191.715L912.952 184.609" stroke="#1C186C" stroke-width="4.63957" stroke-linecap="round" stroke-linejoin="round"/>
<path d="M914.006 207.189H944.92" stroke="#1C186C" stroke-width="4.63957" stroke-linecap="round" stroke-linejoin="round"/>
<path d="M853.349 112.83H818.22C818.22 116.382 820.835 119.25 824.075 119.25H847.494C850.734 119.25 853.349 116.382 853.349 112.83Z" stroke="#1C186C" stroke-width="4.63957" stroke-linecap="round" stroke-linejoin="round"/>
<path d="M835.785 93.5684C827.159 93.5684 820.172 101.23 820.172 110.69V112.83H851.398V110.69C851.398 101.23 844.411 93.5684 835.785 93.5684Z" stroke="#1C186C" stroke-width="4.63957" stroke-linecap="round" stroke-linejoin="round"/>
<path d="M835.784 95.1736C837.671 95.1736 839.2 93.4968 839.2 91.4284C839.2 89.3599 837.671 87.6831 835.784 87.6831C833.898 87.6831 832.369 89.3599 832.369 91.4284C832.369 93.4968 833.898 95.1736 835.784 95.1736Z" fill="#201D67"/>
<path d="M713.257 82.9697C718.663 83.3336 724.069 85.9231 728.343 90.6743C732.578 95.3826 734.9 101.375 735.252 107.367" stroke="#1C186C" stroke-width="4.63957" stroke-linecap="round" stroke-linejoin="round"/>
<path d="M737.474 108.758L735.074 109.4L710.717 115.928C707.439 116.805 704.57 113.595 705.39 109.957L707.107 102.252L707.224 101.76L708.727 95.0613L708.863 94.4193L711.4 83.1835L712.025 80.4441C712.611 77.8117 714.933 76.121 717.314 76.549C723.169 77.5977 728.672 80.5511 733.063 85.4307C737.435 90.2674 740.07 96.3668 741.026 102.851C741.416 105.505 739.855 108.116 737.474 108.758Z" stroke="#1C186C" stroke-width="4.63957" stroke-linecap="round" stroke-linejoin="round"/>
<path d="M722.76 101.909C724.485 101.909 725.883 100.357 725.883 98.4421C725.883 96.5273 724.485 94.9751 722.76 94.9751C721.036 94.9751 719.638 96.5273 719.638 98.4421C719.638 100.357 721.036 101.909 722.76 101.909Z" stroke="#1C186C" stroke-width="4.63957" stroke-linecap="round" stroke-linejoin="round"/>
<path d="M711.205 100.605C710.132 101.803 708.59 102.188 707.224 101.718L709.175 92.9858C709.917 93.1785 710.619 93.5637 711.205 94.2057C712.805 95.982 712.805 98.8499 711.205 100.605Z" stroke="#1C186C" stroke-width="4.63957" stroke-linecap="round" stroke-linejoin="round"/>
<path d="M713.665 112.803C713.372 111.562 713.665 110.192 714.523 109.229C715.831 107.774 717.939 107.774 719.246 109.229C719.676 109.7 719.969 110.278 720.105 110.898" stroke="#1C186C" stroke-width="4.63957" stroke-linecap="round" stroke-linejoin="round"/>
<path d="M635.062 114.776L615.078 136.691C612.951 139.024 612.951 142.791 615.078 145.123C617.205 147.456 620.64 147.456 622.767 145.123L642.752 123.208C644.879 120.875 644.879 117.109 642.752 114.776C640.625 112.443 637.19 112.443 635.062 114.776Z" stroke="#1C186C" stroke-width="4.63957" stroke-linecap="round" stroke-linejoin="round"/>
<path d="M619.273 139.602C621.576 137.076 622.396 137.975 624.718 135.45C627.021 132.925 626.202 132.026 628.505 129.479C630.808 126.953 631.647 127.852 633.95 125.327C636.253 122.802 635.433 121.881 637.736 119.356" stroke="#1C186C" stroke-width="4.63957" stroke-linecap="round" stroke-linejoin="round"/>
<path d="M628.153 112.251L612.774 129.115C610.217 131.919 610.217 136.435 612.774 139.238L637.364 112.272C634.827 109.447 630.69 109.447 628.153 112.251Z" stroke="#1C186C" stroke-width="4.63957" stroke-linecap="round" stroke-linejoin="round"/>
<path d="M629.676 147.648L645.054 130.784C647.611 127.98 647.611 123.465 645.054 120.661L620.464 147.627C623.001 150.452 627.138 150.452 629.676 147.648Z" stroke="#1C186C" stroke-width="4.63957" stroke-linecap="round" stroke-linejoin="round"/>
<path d="M531.333 66.2172H511.816C508.343 66.2172 505.532 63.1354 505.532 59.3259V55.2168H537.617V59.3259C537.617 63.1354 534.807 66.2172 531.333 66.2172Z" stroke="#1C186C" stroke-width="4.63957" stroke-linecap="round" stroke-linejoin="round"/>
<path d="M536.622 48.6245H506.528C504.869 48.6245 503.522 50.1012 503.522 51.9203C503.522 53.7395 504.869 55.2162 506.528 55.2162H536.622C538.281 55.2162 539.627 53.7395 539.627 51.9203C539.627 50.1012 538.281 48.6245 536.622 48.6245Z" stroke="#1C186C" stroke-width="4.63957" stroke-linecap="round" stroke-linejoin="round"/>
<path d="M522.609 31.0327H520.54C512.246 31.0327 505.532 38.3948 505.532 47.4905V48.6247H537.617V47.4905C537.617 38.3948 530.903 31.0327 522.609 31.0327Z" stroke="#1C186C" stroke-width="4.63957" stroke-linecap="round" stroke-linejoin="round"/>
<path d="M505.317 55.7515C506.079 56.6503 506.625 57.8702 508.05 57.8702C509.474 57.8702 510.021 56.6503 510.782 55.7515" stroke="#1C186C" stroke-width="4.63957" stroke-linecap="round" stroke-linejoin="round"/>
<path d="M523.643 55.7515C524.404 56.6503 524.95 57.8702 526.375 57.8702C527.819 57.8702 528.365 56.6503 529.127 55.7515" stroke="#1C186C" stroke-width="4.63957" stroke-linecap="round" stroke-linejoin="round"/>
<path d="M535.566 57.8487C534.142 57.8487 533.595 56.6288 532.834 55.73" stroke="#1C186C" stroke-width="4.63957" stroke-linecap="round" stroke-linejoin="round"/>
<path d="M514.489 55.7515C515.25 56.6503 515.797 57.8702 517.222 57.8702C518.646 57.8702 519.193 56.6503 519.954 55.7515" stroke="#1C186C" stroke-width="4.63957" stroke-linecap="round" stroke-linejoin="round"/>
<path d="M1025.56 96.0091C1021.67 99.7758 1016.38 102.066 1010.55 102.023C1004.75 101.98 999.463 99.6474 995.521 95.8379" stroke="#1C186C" stroke-width="4.63957" stroke-linecap="round" stroke-linejoin="round"/>
<path d="M996.457 104.676C1000.65 107.458 1005.47 109.042 1010.59 109.085C1016.58 109.128 1022.14 107.03 1026.77 103.392C1028.64 101.915 1029.17 99.026 1027.96 96.8002L1026.69 94.4675L1021.44 84.9652C1021.44 84.9652 1017.71 78.2023 1014.2 71.8247C1012.5 68.7429 1008.56 68.7001 1006.88 71.7391L994.388 94.2963L993.159 96.522C991.949 98.7264 992.495 101.658 994.408 103.156C995.052 103.713 995.754 104.205 996.457 104.676Z" stroke="#1C186C" stroke-width="4.63957" stroke-linecap="round" stroke-linejoin="round"/>
<path d="M1003.58 91.5785C1003.11 91.3645 1002.58 91.3645 1002.12 91.5785C1001.86 91.6855 1001.67 91.8353 1001.47 92.0279C1001.12 92.4345 1000.91 92.9696 1000.91 93.526C1000.91 94.1038 1001.1 94.6175 1001.47 95.0241C1001.84 95.4307 1002.31 95.6448 1002.84 95.6448C1003.37 95.6448 1003.83 95.4307 1004.2 95.0241C1004.58 94.6175 1004.77 94.0824 1004.77 93.526C1004.77 92.9696 1004.56 92.4345 1004.2 92.0279C1004.03 91.8139 1003.81 91.6641 1003.58 91.5785Z" fill="#201D67"/>
<path d="M1011.27 93.6776C1010.8 93.4636 1010.27 93.4636 1009.81 93.6776C1009.57 93.7846 1009.36 93.9344 1009.16 94.127C1008.81 94.5336 1008.6 95.0687 1008.6 95.6251C1008.6 96.203 1008.79 96.7166 1009.16 97.1232C1009.53 97.5299 1010 97.7439 1010.53 97.7439C1011.05 97.7439 1011.52 97.5299 1011.89 97.1232C1012.26 96.7166 1012.46 96.203 1012.46 95.6251C1012.46 95.0687 1012.25 94.5336 1011.89 94.127C1011.72 93.9344 1011.52 93.7846 1011.27 93.6776Z" fill="#201D67"/>
<path d="M1019.62 92.0065C1018.9 91.2146 1017.61 91.2146 1016.89 92.0065C1016.54 92.4131 1016.33 92.9481 1016.33 93.5046C1016.33 94.0824 1016.52 94.5961 1016.89 95.0027C1017.26 95.4093 1017.73 95.6233 1018.26 95.6233C1018.51 95.6233 1018.76 95.5591 1018.98 95.4521C1019.21 95.3451 1019.43 95.1953 1019.62 95.0027C1019.99 94.5961 1020.19 94.0824 1020.19 93.5046C1020.17 92.9696 1019.96 92.4131 1019.62 92.0065Z" fill="#201D67"/>
<path d="M1016.17 84.2606C1016.07 83.9823 1015.93 83.7684 1015.76 83.5543C1015.04 82.7625 1013.75 82.7625 1013.03 83.5543C1012.85 83.7684 1012.71 83.9823 1012.62 84.2606C1012.52 84.5174 1012.46 84.7956 1012.46 85.0524C1012.46 85.3307 1012.52 85.6089 1012.62 85.8443C1012.71 86.1011 1012.85 86.3365 1013.03 86.5505C1013.4 86.9572 1013.87 87.1712 1014.39 87.1712C1014.65 87.1712 1014.9 87.107 1015.11 87C1015.35 86.8929 1015.56 86.7432 1015.76 86.5505C1016.13 86.1439 1016.32 85.6303 1016.32 85.0524C1016.32 84.7956 1016.27 84.5174 1016.17 84.2606Z" fill="#201D67"/>
<path d="M1008.46 84.2606C1008.36 84.0037 1008.22 83.7684 1008.05 83.5543C1007.31 82.7625 1006.02 82.7625 1005.32 83.5543C1005.14 83.7684 1005 83.9823 1004.91 84.2606C1004.81 84.5174 1004.75 84.7956 1004.75 85.0524C1004.75 85.6303 1004.95 86.1439 1005.32 86.5505C1005.51 86.7432 1005.73 86.8929 1005.96 87C1006.19 87.107 1006.45 87.1712 1006.7 87.1712C1007.23 87.1712 1007.7 86.9572 1008.07 86.5505C1008.24 86.3365 1008.38 86.1011 1008.48 85.8443C1008.59 85.5875 1008.63 85.3093 1008.63 85.0524C1008.61 84.7956 1008.58 84.5174 1008.46 84.2606Z" fill="#201D67"/>
<path d="M1009.18 78.1171C1009.55 78.5237 1010.02 78.7378 1010.55 78.7378C1010.8 78.7378 1011.05 78.6736 1011.27 78.5666C1011.5 78.4596 1011.72 78.3097 1011.91 78.1171C1012.09 77.9031 1012.23 77.6677 1012.32 77.4109C1012.42 77.154 1012.48 76.8758 1012.48 76.619C1012.48 76.0412 1012.26 75.5276 1011.91 75.1209C1011.37 74.5431 1010.53 74.3291 1009.81 74.6715C1009.55 74.7785 1009.36 74.9283 1009.16 75.1209C1008.81 75.5276 1008.6 76.0626 1008.6 76.619C1008.6 76.8972 1008.65 77.1754 1008.75 77.4109C1008.87 77.6677 1009.01 77.9031 1009.18 78.1171Z" fill="#201D67"/>
<path d="M840.175 256.048C837.813 261.527 832.739 265.315 826.845 265.315C818.707 265.315 812.091 258.06 812.091 249.136C812.091 241.196 817.321 234.583 824.23 233.213C824.464 238.028 827.684 241.988 831.9 242.865C831.822 243.443 831.763 244.042 831.763 244.641C831.763 250.248 835.374 254.935 840.175 256.048Z" stroke="#1C186C" stroke-width="4.63957" stroke-linecap="round" stroke-linejoin="round"/>
<path d="M820.736 240.318C819.545 240.318 818.569 241.388 818.569 242.693C818.569 243.999 819.545 245.069 820.736 245.069C821.926 245.069 822.902 243.999 822.902 242.693C822.902 241.367 821.926 240.318 820.736 240.318Z" fill="#201D67"/>
<path d="M815.954 227.926C814.764 227.926 813.788 228.996 813.788 230.301C813.788 231.607 814.764 232.677 815.954 232.677C817.145 232.677 818.121 231.607 818.121 230.301C818.101 228.974 817.145 227.926 815.954 227.926Z" fill="#201D67"/>
<path d="M827.039 247.617C825.849 247.617 824.873 248.687 824.873 249.992C824.873 251.298 825.849 252.368 827.039 252.368C828.23 252.368 829.206 251.298 829.206 249.992C829.206 248.665 828.23 247.617 827.039 247.617Z" fill="#201D67"/>
<path d="M828.914 257.138C828.914 257.138 828.504 257.395 827.977 257.737C827.469 258.058 827.04 258.337 827.04 258.337C827.04 258.337 827.45 258.08 827.977 257.737C828.484 257.395 828.914 257.138 828.914 257.138Z" stroke="#1C186C" stroke-width="4.63957" stroke-linecap="round" stroke-linejoin="round"/>
<path d="M818.981 250.998C818.981 250.998 819.43 251.212 819.977 251.468C820.523 251.725 820.972 251.939 820.972 251.939C820.972 251.939 820.523 251.725 819.977 251.468C819.43 251.212 818.981 250.998 818.981 250.998Z" stroke="#1C186C" stroke-width="4.63957" stroke-linecap="round" stroke-linejoin="round"/>
<path d="M809.301 237.536C809.301 237.536 809.652 237.172 810.081 236.723C810.511 236.273 810.862 235.91 810.862 235.91C810.862 235.91 810.511 236.273 810.081 236.723C809.652 237.172 809.301 237.536 809.301 237.536Z" stroke="#1C186C" stroke-width="4.63957" stroke-linecap="round" stroke-linejoin="round"/>
<path d="M807.33 249.457C805.3 246.932 804.07 243.636 804.07 240.019C804.07 232.122 809.906 225.723 817.107 225.723C822.923 225.723 827.861 229.896 829.539 235.675" stroke="#1C186C" stroke-width="4.63957" stroke-linecap="round" stroke-linejoin="round"/>
<path d="M1098.47 159.636C1097.22 159.331 1095.91 159.375 1094.68 159.763C1093.45 160.152 1092.32 160.874 1091.4 161.862C1091.02 162.301 1090.8 162.888 1090.8 163.499C1090.8 164.11 1091.02 164.697 1091.4 165.136L1093.63 167.662" stroke="#1C186C" stroke-width="4.63957" stroke-linecap="round" stroke-linejoin="round"/>
<path d="M1113.03 175.879C1113.3 177.271 1113.24 178.714 1112.88 180.078C1112.51 181.442 1111.84 182.683 1110.92 183.691C1110.73 183.906 1110.5 184.076 1110.24 184.193C1109.99 184.309 1109.71 184.369 1109.44 184.369C1109.16 184.369 1108.89 184.309 1108.63 184.193C1108.38 184.076 1108.15 183.906 1107.95 183.691L1105.69 181.166" stroke="#1C186C" stroke-width="4.63957" stroke-linecap="round" stroke-linejoin="round"/>
<path d="M1095.17 181.68C1095.98 183.076 1096.4 184.694 1096.4 186.345C1096.4 187.46 1096.2 188.564 1095.81 189.592C1095.41 190.621 1094.84 191.554 1094.12 192.338C1093.98 192.473 1093.8 192.548 1093.62 192.548C1093.44 192.548 1093.26 192.473 1093.12 192.338C1092.48 191.629 1091.97 190.794 1091.62 189.877C1091.3 189.206 1091.07 188.484 1090.96 187.736C1090.91 187.281 1090.91 186.822 1090.96 186.367C1091.31 184.286 1092.27 182.39 1093.71 180.973C1092.38 182.507 1090.63 183.528 1088.73 183.884C1088.32 183.927 1087.9 183.927 1087.48 183.884C1086.8 183.738 1086.14 183.478 1085.53 183.114C1084.69 182.677 1083.94 182.066 1083.31 181.316C1083.18 181.166 1083.11 180.972 1083.11 180.77C1083.11 180.568 1083.18 180.374 1083.31 180.224C1084.77 178.659 1086.73 177.783 1088.77 177.785C1090.27 177.795 1091.73 178.278 1092.99 179.176" stroke="#1C186C" stroke-width="4.63957" stroke-linecap="round" stroke-linejoin="round"/>
<path d="M1117.56 154.906C1117.33 154.616 1117.06 154.357 1116.78 154.136C1115.97 153.575 1115.08 153.195 1114.14 153.019C1113.2 152.842 1112.24 152.873 1111.31 153.108C1109.12 153.472 1107.01 154.262 1105.07 155.441C1101.42 157.372 1098.36 160.41 1096.25 164.194C1094.37 167.999 1093.31 172.222 1093.14 176.543C1093.14 176.843 1092.81 179.09 1093.03 179.24L1095.19 181.679C1095.33 181.915 1097.36 181.679 1097.63 181.572C1101.59 181.459 1105.47 180.338 1108.97 178.298C1112.44 176.051 1115.23 172.741 1117.01 168.774C1118.73 164.858 1120.68 158.63 1117.56 154.906Z" stroke="#1C186C" stroke-width="4.63957" stroke-linecap="round" stroke-linejoin="round"/>
<path d="M1103.97 157.389C1104.77 160.31 1106.19 162.976 1108.13 165.158C1110.08 167.335 1112.49 168.952 1115.14 169.866" stroke="#1C186C" stroke-width="4.63957" stroke-linecap="round" stroke-linejoin="round"/>
<path d="M1112.4 157.453C1112.22 157.246 1112 157.081 1111.76 156.968C1111.52 156.856 1111.26 156.798 1111 156.798C1110.74 156.798 1110.48 156.856 1110.24 156.968C1109.99 157.081 1109.78 157.246 1109.59 157.453C1109.33 157.755 1109.15 158.137 1109.08 158.549C1109.01 158.962 1109.05 159.389 1109.2 159.775C1109.35 160.162 1109.6 160.491 1109.92 160.723C1110.24 160.955 1110.62 161.078 1111 161.078C1111.38 161.078 1111.76 160.955 1112.08 160.723C1112.4 160.491 1112.65 160.162 1112.8 159.775C1112.95 159.389 1112.99 158.962 1112.92 158.549C1112.85 158.137 1112.67 157.755 1112.4 157.453Z" fill="#201D67"/>
<path d="M615.235 245.048C620.641 245.412 626.047 248.002 630.321 252.753C634.556 257.461 636.879 263.454 637.23 269.446" stroke="#1C186C" stroke-width="4.63957" stroke-linecap="round" stroke-linejoin="round"/>
<path d="M639.453 270.837L637.052 271.479L612.696 278.006C609.417 278.884 606.548 275.674 607.368 272.035L609.085 264.331L609.203 263.839L610.705 257.14L610.842 256.498L613.379 245.262L614.004 242.523C614.589 239.89 616.911 238.2 619.292 238.628C625.147 239.676 630.651 242.63 635.042 247.509C639.414 252.346 642.048 258.445 643.005 264.93C643.395 267.584 641.834 270.195 639.453 270.837Z" stroke="#1C186C" stroke-width="4.63957" stroke-linecap="round" stroke-linejoin="round"/>
<path d="M624.738 263.99C626.462 263.99 627.86 262.438 627.86 260.523C627.86 258.608 626.462 257.056 624.738 257.056C623.013 257.056 621.615 258.608 621.615 260.523C621.615 262.438 623.013 263.99 624.738 263.99Z" stroke="#1C186C" stroke-width="4.63957" stroke-linecap="round" stroke-linejoin="round"/>
<path d="M613.184 262.683C612.111 263.881 610.569 264.267 609.203 263.796L611.155 255.064C611.896 255.257 612.599 255.642 613.184 256.284C614.785 258.06 614.785 260.928 613.184 262.683Z" stroke="#1C186C" stroke-width="4.63957" stroke-linecap="round" stroke-linejoin="round"/>
<path d="M615.643 274.883C615.351 273.642 615.643 272.272 616.502 271.309C617.81 269.853 619.917 269.853 621.225 271.309C621.654 271.78 621.947 272.357 622.084 272.978" stroke="#1C186C" stroke-width="4.63957" stroke-linecap="round" stroke-linejoin="round"/>
<path d="M1178.73 231.676C1184.13 232.04 1189.54 234.63 1193.81 239.381C1198.05 244.089 1200.37 250.082 1200.72 256.074" stroke="#1C186C" stroke-width="4.63957" stroke-linecap="round" stroke-linejoin="round"/>
<path d="M1202.95 257.466L1200.55 258.108L1176.19 264.635C1172.91 265.513 1170.04 262.303 1170.86 258.664L1172.58 250.96L1172.7 250.468L1174.2 243.769L1174.34 243.127L1176.87 231.891L1177.5 229.152C1178.08 226.519 1180.41 224.829 1182.79 225.257C1188.64 226.305 1194.15 229.259 1198.54 234.138C1202.91 238.975 1205.54 245.074 1206.5 251.559C1206.89 254.213 1205.33 256.824 1202.95 257.466Z" stroke="#1C186C" stroke-width="4.63957" stroke-linecap="round" stroke-linejoin="round"/>
<path d="M1188.23 250.617C1189.96 250.617 1191.36 249.064 1191.36 247.15C1191.36 245.235 1189.96 243.683 1188.23 243.683C1186.51 243.683 1185.11 245.235 1185.11 247.15C1185.11 249.064 1186.51 250.617 1188.23 250.617Z" stroke="#1C186C" stroke-width="4.63957" stroke-linecap="round" stroke-linejoin="round"/>
<path d="M1176.68 249.312C1175.61 250.511 1174.06 250.896 1172.7 250.425L1174.65 241.693C1175.39 241.886 1176.09 242.271 1176.68 242.913C1178.28 244.69 1178.28 247.557 1176.68 249.312Z" stroke="#1C186C" stroke-width="4.63957" stroke-linecap="round" stroke-linejoin="round"/>
<path d="M1179.14 261.511C1178.85 260.269 1179.14 258.9 1180 257.937C1181.3 256.481 1183.41 256.481 1184.72 257.937C1185.15 258.408 1185.44 258.985 1185.58 259.606" stroke="#1C186C" stroke-width="4.63957" stroke-linecap="round" stroke-linejoin="round"/>
<path d="M1196.64 69.8345L1176.66 91.7497C1174.53 94.0824 1174.53 97.8491 1176.66 100.182C1178.79 102.515 1182.22 102.515 1184.35 100.182L1204.33 78.2667C1206.46 75.934 1206.46 72.1673 1204.33 69.8345C1202.21 67.5018 1198.77 67.5018 1196.64 69.8345Z" stroke="#1C186C" stroke-width="4.63957" stroke-linecap="round" stroke-linejoin="round"/>
<path d="M1180.86 94.6594C1183.16 92.134 1183.98 93.0329 1186.3 90.5075C1188.6 87.9821 1187.78 87.0833 1190.09 84.5365C1192.39 82.0111 1193.23 82.91 1195.53 80.3846C1197.83 77.8592 1197.01 76.939 1199.32 74.4136" stroke="#1C186C" stroke-width="4.63957" stroke-linecap="round" stroke-linejoin="round"/>
<path d="M1189.74 67.3085L1174.36 84.1729C1171.8 86.9765 1171.8 91.4922 1174.36 94.2958L1198.95 67.3299C1196.41 64.5049 1192.27 64.5049 1189.74 67.3085Z" stroke="#1C186C" stroke-width="4.63957" stroke-linecap="round" stroke-linejoin="round"/>
<path d="M1191.26 102.706L1206.64 85.8412C1209.19 83.0376 1209.19 78.5219 1206.64 75.7183L1182.05 102.684C1184.58 105.509 1188.72 105.509 1191.26 102.706Z" stroke="#1C186C" stroke-width="4.63957" stroke-linecap="round" stroke-linejoin="round"/>
<path d="M437.655 275.953H418.139C414.665 275.953 411.854 272.871 411.854 269.061V264.952H443.939V269.061C443.939 272.871 441.129 275.953 437.655 275.953Z" stroke="#1C186C" stroke-width="4.63957" stroke-linecap="round" stroke-linejoin="round"/>
<path d="M442.943 258.36H412.849C411.19 258.36 409.844 259.837 409.844 261.656C409.844 263.475 411.19 264.952 412.849 264.952H442.943C444.602 264.952 445.949 263.475 445.949 261.656C445.949 259.837 444.602 258.36 442.943 258.36Z" stroke="#1C186C" stroke-width="4.63957" stroke-linecap="round" stroke-linejoin="round"/>
<path d="M428.931 240.768H426.862C418.568 240.768 411.854 248.13 411.854 257.226V258.36H443.939V257.226C443.939 248.13 437.226 240.768 428.931 240.768Z" stroke="#1C186C" stroke-width="4.63957" stroke-linecap="round" stroke-linejoin="round"/>
<path d="M411.639 265.487C412.4 266.386 412.946 267.606 414.371 267.606C415.796 267.606 416.342 266.386 417.103 265.487" stroke="#1C186C" stroke-width="4.63957" stroke-linecap="round" stroke-linejoin="round"/>
<path d="M429.965 265.487C430.726 266.386 431.272 267.606 432.697 267.606C434.141 267.606 434.688 266.386 435.449 265.487" stroke="#1C186C" stroke-width="4.63957" stroke-linecap="round" stroke-linejoin="round"/>
<path d="M441.889 267.584C440.465 267.584 439.918 266.364 439.157 265.465" stroke="#1C186C" stroke-width="4.63957" stroke-linecap="round" stroke-linejoin="round"/>
<path d="M420.812 265.487C421.573 266.386 422.119 267.606 423.544 267.606C424.968 267.606 425.515 266.386 426.276 265.487" stroke="#1C186C" stroke-width="4.63957" stroke-linecap="round" stroke-linejoin="round"/>
<path d="M1108.12 21.2748H1088.61C1085.13 21.2748 1082.32 18.193 1082.32 14.3835V10.2744H1114.41V14.3835C1114.41 18.193 1111.6 21.2748 1108.12 21.2748Z" stroke="#1C186C" stroke-width="4.63957" stroke-linecap="round" stroke-linejoin="round"/>
<path d="M1113.41 3.68164H1083.32C1081.66 3.68164 1080.31 5.15834 1080.31 6.97747C1080.31 8.7966 1081.66 10.2733 1083.32 10.2733H1113.41C1115.07 10.2733 1116.42 8.7966 1116.42 6.97747C1116.42 5.15834 1115.07 3.68164 1113.41 3.68164Z" stroke="#1C186C" stroke-width="4.63957" stroke-linecap="round" stroke-linejoin="round"/>
<path d="M1099.4 -13.9102H1097.33C1089.04 -13.9102 1082.32 -6.54804 1082.32 2.5476V3.68188H1114.41V2.5476C1114.41 -6.54804 1107.7 -13.9102 1099.4 -13.9102Z" stroke="#1C186C" stroke-width="4.63957" stroke-linecap="round" stroke-linejoin="round"/>
<path d="M1082.11 10.8081C1082.87 11.707 1083.42 12.9269 1084.84 12.9269C1086.27 12.9269 1086.81 11.707 1087.58 10.8081" stroke="#1C186C" stroke-width="4.63957" stroke-linecap="round" stroke-linejoin="round"/>
<path d="M1100.44 10.8081C1101.2 11.707 1101.74 12.9269 1103.17 12.9269C1104.61 12.9269 1105.16 11.707 1105.92 10.8081" stroke="#1C186C" stroke-width="4.63957" stroke-linecap="round" stroke-linejoin="round"/>
<path d="M1112.36 12.9063C1110.94 12.9063 1110.39 11.6865 1109.63 10.7876" stroke="#1C186C" stroke-width="4.63957" stroke-linecap="round" stroke-linejoin="round"/>
<path d="M1091.28 10.8081C1092.05 11.707 1092.59 12.9269 1094.02 12.9269C1095.44 12.9269 1095.99 11.707 1096.75 10.8081" stroke="#1C186C" stroke-width="4.63957" stroke-linecap="round" stroke-linejoin="round"/>
<path d="M1035.92 288.792H1016.4C1012.93 288.792 1010.12 285.71 1010.12 281.901V277.792H1042.2V281.901C1042.2 285.71 1039.39 288.792 1035.92 288.792Z" stroke="#1C186C" stroke-width="4.63957" stroke-linecap="round" stroke-linejoin="round"/>
<path d="M1041.21 271.2H1011.11C1009.46 271.2 1008.11 272.677 1008.11 274.496C1008.11 276.315 1009.46 277.792 1011.11 277.792H1041.21C1042.87 277.792 1044.21 276.315 1044.21 274.496C1044.21 272.677 1042.87 271.2 1041.21 271.2Z" stroke="#1C186C" stroke-width="4.63957" stroke-linecap="round" stroke-linejoin="round"/>
<path d="M1027.19 253.607H1025.13C1016.83 253.607 1010.12 260.97 1010.12 270.065V271.199H1042.2V270.065C1042.2 260.97 1035.49 253.607 1027.19 253.607Z" stroke="#1C186C" stroke-width="4.63957" stroke-linecap="round" stroke-linejoin="round"/>
<path d="M1009.9 278.326C1010.66 279.225 1011.21 280.445 1012.64 280.445C1014.06 280.445 1014.61 279.225 1015.37 278.326" stroke="#1C186C" stroke-width="4.63957" stroke-linecap="round" stroke-linejoin="round"/>
<path d="M1028.23 278.326C1028.99 279.225 1029.54 280.445 1030.96 280.445C1032.4 280.445 1032.95 279.225 1033.71 278.326" stroke="#1C186C" stroke-width="4.63957" stroke-linecap="round" stroke-linejoin="round"/>
<path d="M1040.15 280.423C1038.73 280.423 1038.18 279.204 1037.42 278.305" stroke="#1C186C" stroke-width="4.63957" stroke-linecap="round" stroke-linejoin="round"/>
<path d="M1019.08 278.326C1019.84 279.225 1020.38 280.445 1021.81 280.445C1023.23 280.445 1023.78 279.225 1024.54 278.326" stroke="#1C186C" stroke-width="4.63957" stroke-linecap="round" stroke-linejoin="round"/>
</g>
<g opacity="0.25">
<path d="M248.774 270.945C252.662 267.182 257.953 264.898 263.789 264.947C269.585 264.996 274.871 267.335 278.81 271.148" stroke="#1C186C" stroke-width="4.63957" stroke-linecap="round" stroke-linejoin="round"/>
<path d="M277.882 262.31C273.689 259.523 268.87 257.934 263.757 257.886C257.765 257.836 252.201 259.928 247.572 263.561C245.697 265.036 245.166 267.924 246.374 270.151L247.64 272.486L252.88 281.993C252.88 281.993 256.6 288.76 260.106 295.142C261.801 298.225 265.743 298.272 267.425 295.235L279.939 272.691L281.171 270.467C282.383 268.264 281.84 265.331 279.929 263.831C279.286 263.274 278.584 262.781 277.882 262.31Z" stroke="#1C186C" stroke-width="4.63957" stroke-linecap="round" stroke-linejoin="round"/>
<path d="M270.744 275.399C271.213 275.614 271.74 275.614 272.208 275.401C272.462 275.294 272.657 275.144 272.853 274.952C273.204 274.546 273.42 274.011 273.42 273.454C273.421 272.877 273.226 272.363 272.856 271.956C272.485 271.549 272.017 271.334 271.49 271.334C270.963 271.333 270.495 271.547 270.124 271.953C269.752 272.359 269.557 272.894 269.556 273.45C269.555 274.007 269.77 274.542 270.12 274.949C270.296 275.163 270.51 275.313 270.744 275.399Z" fill="#201D67"/>
<path d="M263.057 273.294C263.525 273.508 264.052 273.509 264.521 273.295C264.755 273.188 264.97 273.039 265.165 272.846C265.517 272.44 265.732 271.905 265.733 271.349C265.733 270.771 265.539 270.257 265.168 269.85C264.798 269.443 264.33 269.229 263.803 269.228C263.276 269.228 262.807 269.441 262.436 269.847C262.065 270.254 261.869 270.767 261.869 271.345C261.868 271.901 262.082 272.437 262.433 272.844C262.608 273.036 262.803 273.186 263.057 273.294Z" fill="#201D67"/>
<path d="M254.701 274.954C255.423 275.747 256.711 275.748 257.434 274.957C257.785 274.551 258.001 274.016 258.001 273.46C258.002 272.882 257.807 272.368 257.437 271.961C257.067 271.554 256.598 271.339 256.071 271.339C255.818 271.339 255.564 271.403 255.349 271.509C255.115 271.616 254.9 271.766 254.705 271.958C254.333 272.364 254.138 272.878 254.137 273.456C254.156 273.991 254.37 274.547 254.701 274.954Z" fill="#201D67"/>
<path d="M258.148 282.706C258.245 282.984 258.381 283.198 258.557 283.412C259.278 284.205 260.566 284.206 261.289 283.415C261.465 283.201 261.602 282.988 261.7 282.709C261.798 282.453 261.856 282.175 261.857 281.918C261.857 281.64 261.799 281.361 261.701 281.126C261.604 280.869 261.468 280.633 261.292 280.419C260.922 280.012 260.454 279.798 259.927 279.797C259.673 279.797 259.419 279.861 259.205 279.967C258.97 280.074 258.755 280.224 258.56 280.416C258.189 280.822 257.993 281.336 257.993 281.914C257.992 282.17 258.05 282.449 258.148 282.706Z" fill="#201D67"/>
<path d="M265.857 282.714C265.954 282.971 266.09 283.206 266.266 283.421C267.007 284.213 268.295 284.215 268.998 283.424C269.174 283.21 269.311 282.996 269.409 282.718C269.507 282.461 269.565 282.183 269.566 281.926C269.566 281.348 269.372 280.834 269.001 280.427C268.806 280.235 268.592 280.085 268.358 279.977C268.124 279.87 267.87 279.806 267.616 279.805C267.089 279.805 266.621 280.018 266.25 280.424C266.074 280.638 265.937 280.874 265.839 281.13C265.722 281.387 265.682 281.665 265.682 281.922C265.701 282.179 265.74 282.457 265.857 282.714Z" fill="#201D67"/>
<path d="M184.619 207.25C185.872 207.556 187.176 207.514 188.41 207.127C189.645 206.739 190.771 206.019 191.687 205.031C192.075 204.593 192.292 204.006 192.292 203.395C192.293 202.784 192.077 202.197 191.69 201.757L189.468 199.229" stroke="#1C186C" stroke-width="4.63957" stroke-linecap="round" stroke-linejoin="round"/>
<path d="M170.078 190.991C169.811 189.599 169.865 188.156 170.235 186.792C170.604 185.429 171.278 184.188 172.194 183.181C172.388 182.967 172.62 182.796 172.874 182.68C173.129 182.564 173.402 182.505 173.678 182.505C173.954 182.505 174.227 182.565 174.481 182.682C174.736 182.799 174.967 182.97 175.161 183.185L177.422 185.712" stroke="#1C186C" stroke-width="4.63957" stroke-linecap="round" stroke-linejoin="round"/>
<path d="M187.941 185.21C187.137 183.813 186.713 182.194 186.716 180.543C186.718 179.428 186.921 178.325 187.314 177.296C187.707 176.268 188.282 175.336 189.006 174.553C189.143 174.418 189.32 174.343 189.504 174.343C189.688 174.343 189.865 174.418 190.001 174.554C190.639 175.263 191.148 176.099 191.501 177.017C191.823 177.688 192.047 178.41 192.163 179.158C192.207 179.613 192.206 180.072 192.161 180.527C191.808 182.608 190.839 184.503 189.404 185.917C190.734 184.385 192.481 183.366 194.383 183.012C194.799 182.969 195.217 182.97 195.632 183.014C196.315 183.16 196.973 183.421 197.583 183.786C198.423 184.224 199.177 184.835 199.806 185.586C199.929 185.736 199.998 185.93 199.997 186.132C199.997 186.334 199.929 186.528 199.805 186.678C198.343 188.242 196.38 189.116 194.338 189.112C192.84 189.099 191.377 188.615 190.124 187.716" stroke="#1C186C" stroke-width="4.63957" stroke-linecap="round" stroke-linejoin="round"/>
<path d="M165.527 211.959C165.758 212.249 166.02 212.508 166.307 212.73C167.109 213.292 168.005 213.673 168.943 213.85C169.882 214.028 170.843 213.998 171.77 213.763C173.962 213.403 176.078 212.615 178.018 211.437C181.665 209.511 184.73 206.476 186.849 202.694C188.728 198.891 189.794 194.669 189.965 190.348C189.965 190.049 190.299 187.802 190.085 187.652L187.921 185.21C187.785 184.974 185.755 185.207 185.482 185.314C181.522 185.423 177.639 186.54 174.139 188.576C170.667 190.82 167.869 194.127 166.088 198.091C164.367 202.006 162.408 208.232 165.527 211.959Z" stroke="#1C186C" stroke-width="4.63957" stroke-linecap="round" stroke-linejoin="round"/>
<path d="M179.115 209.491C178.327 206.569 176.903 203.902 174.967 201.718C173.022 199.539 170.617 197.919 167.965 197.002" stroke="#1C186C" stroke-width="4.63957" stroke-linecap="round" stroke-linejoin="round"/>
<path d="M170.682 209.418C170.864 209.625 171.082 209.79 171.323 209.903C171.565 210.016 171.824 210.074 172.086 210.075C172.349 210.075 172.609 210.017 172.85 209.905C173.092 209.793 173.31 209.628 173.492 209.421C173.758 209.119 173.938 208.738 174.008 208.325C174.078 207.912 174.035 207.486 173.886 207.099C173.736 206.713 173.487 206.383 173.167 206.151C172.848 205.919 172.474 205.795 172.091 205.794C171.708 205.794 171.334 205.917 171.014 206.148C170.694 206.38 170.444 206.709 170.294 207.095C170.143 207.482 170.1 207.908 170.169 208.321C170.238 208.734 170.417 209.115 170.682 209.418Z" fill="#201D67"/>
<path d="M82.0029 296.941L102.011 275.047C104.141 272.717 104.145 268.95 102.02 266.615C99.8954 264.28 96.4605 264.277 94.3307 266.607L74.3226 288.501C72.1929 290.831 72.1888 294.598 74.3136 296.933C76.4383 299.268 79.8732 299.272 82.0029 296.941Z" stroke="#1C186C" stroke-width="4.63957" stroke-linecap="round" stroke-linejoin="round"/>
<path d="M97.8186 272.133C95.513 274.656 94.6943 273.756 92.3692 276.279C90.0635 278.802 90.8823 279.701 88.5766 282.246C86.271 284.768 85.4328 283.869 83.1271 286.392C80.8215 288.915 81.6402 289.836 79.3346 292.359" stroke="#1C186C" stroke-width="4.63957" stroke-linecap="round" stroke-linejoin="round"/>
<path d="M88.9092 299.474L104.306 282.626C106.866 279.825 106.871 275.309 104.317 272.503L79.6976 299.442C82.2316 302.27 86.3691 302.275 88.9092 299.474Z" stroke="#1C186C" stroke-width="4.63957" stroke-linecap="round" stroke-linejoin="round"/>
<path d="M87.4248 264.075L72.0279 280.922C69.4683 283.723 69.4634 288.239 72.017 291.045L96.6364 264.106C94.1023 261.278 89.9649 261.274 87.4248 264.075Z" stroke="#1C186C" stroke-width="4.63957" stroke-linecap="round" stroke-linejoin="round"/>
<path d="M357.89 61.3263C361.777 57.5638 367.069 55.2795 372.904 55.3286C378.7 55.3776 383.987 57.7161 387.925 61.5298" stroke="#1C186C" stroke-width="4.63957" stroke-linecap="round" stroke-linejoin="round"/>
<path d="M386.997 52.6899C382.804 49.9032 377.985 48.3143 372.872 48.266C366.88 48.2168 361.316 50.3082 356.687 53.9414C354.812 55.4161 354.282 58.3048 355.489 60.5318L356.755 62.8659L361.995 72.3738C361.995 72.3738 365.715 79.1407 369.221 85.5221C370.916 88.6058 374.858 88.6528 376.54 85.6156L389.054 63.0719L390.286 60.8474C391.499 58.6444 390.955 55.7118 389.044 54.2116C388.401 53.6545 387.699 53.1615 386.997 52.6899Z" stroke="#1C186C" stroke-width="4.63957" stroke-linecap="round" stroke-linejoin="round"/>
<path d="M379.86 65.7819C380.328 65.9964 380.855 65.997 381.323 65.7835C381.577 65.6768 381.773 65.5272 381.968 65.3348C382.32 64.9285 382.535 64.3937 382.535 63.8373C382.536 63.2595 382.341 62.7456 381.971 62.3386C381.601 61.9316 381.133 61.717 380.606 61.7165C380.079 61.7159 379.61 61.9294 379.239 62.3356C378.868 62.7419 378.672 63.2767 378.671 63.8331C378.671 64.3896 378.885 64.9248 379.236 65.3318C379.411 65.546 379.626 65.6961 379.86 65.7819Z" fill="#201D67"/>
<path d="M372.172 63.675C372.64 63.8895 373.167 63.8901 373.636 63.6766C373.87 63.5698 374.085 63.4203 374.28 63.2278C374.632 62.8216 374.847 62.2868 374.848 61.7303C374.849 61.1525 374.654 60.6386 374.284 60.2316C373.913 59.8246 373.445 59.6101 372.918 59.6095C372.391 59.609 371.923 59.8225 371.551 60.2287C371.18 60.6349 370.984 61.1483 370.984 61.7262C370.983 62.2826 371.197 62.8179 371.548 63.2249C371.724 63.4177 371.919 63.5677 372.172 63.675Z" fill="#201D67"/>
<path d="M363.818 65.3371C364.539 66.1298 365.827 66.1311 366.55 65.3401C366.902 64.9338 367.117 64.399 367.117 63.8426C367.118 63.2647 366.924 62.7509 366.553 62.3439C366.183 61.9368 365.715 61.7223 365.188 61.7217C364.934 61.7215 364.68 61.7854 364.465 61.8922C364.231 61.9989 364.016 62.1485 363.821 62.3409C363.45 62.7472 363.254 63.2606 363.253 63.8384C363.272 64.3735 363.486 64.9301 363.818 65.3371Z" fill="#201D67"/>
<path d="M367.263 73.0865C367.36 73.3649 367.497 73.579 367.672 73.7932C368.393 74.5858 369.681 74.5872 370.404 73.7961C370.58 73.5823 370.717 73.3685 370.815 73.0903C370.913 72.8336 370.972 72.5555 370.972 72.2986C370.972 72.0204 370.914 71.7421 370.817 71.5066C370.719 71.2497 370.583 71.0141 370.408 70.7999C370.037 70.3929 369.569 70.1784 369.042 70.1778C368.788 70.1776 368.535 70.2415 368.32 70.3483C368.086 70.455 367.871 70.6046 367.675 70.797C367.304 71.2032 367.108 71.7166 367.108 72.2945C367.107 72.5513 367.166 72.8296 367.263 73.0865Z" fill="#201D67"/>
<path d="M374.973 73.0948C375.07 73.3518 375.207 73.5873 375.382 73.8015C376.123 74.5941 377.411 74.5955 378.114 73.8044C378.29 73.5906 378.427 73.3768 378.525 73.0986C378.623 72.8419 378.682 72.5638 378.682 72.3069C378.683 71.7291 378.488 71.2153 378.118 70.8082C377.923 70.6154 377.708 70.4654 377.474 70.3581C377.24 70.2509 376.986 70.1864 376.733 70.1861C376.206 70.1855 375.737 70.399 375.366 70.8053C375.19 71.0191 375.053 71.2544 374.955 71.5111C374.838 71.7678 374.798 72.0459 374.798 72.3028C374.817 72.5596 374.856 72.8379 374.973 73.0948Z" fill="#201D67"/>
<path d="M374.244 79.2372C373.873 78.8302 373.405 78.6157 372.878 78.6151C372.624 78.6148 372.371 78.6788 372.156 78.7855C371.922 78.8923 371.707 79.0419 371.511 79.2343C371.335 79.4481 371.199 79.6834 371.101 79.9401C371.003 80.1968 370.944 80.475 370.944 80.7318C370.943 81.3096 371.157 81.8235 371.508 82.2305C372.054 82.8089 372.893 83.0239 373.615 82.6822C373.869 82.5755 374.065 82.4259 374.26 82.2335C374.612 81.8272 374.827 81.2924 374.827 80.736C374.828 80.4577 374.77 80.1795 374.672 79.9439C374.555 79.687 374.419 79.4514 374.244 79.2372Z" fill="#201D67"/>
<path d="M278.488 28.5929C279.742 28.8995 281.045 28.8572 282.279 28.4698C283.514 28.0823 284.64 27.362 285.556 26.3747C285.944 25.936 286.161 25.3492 286.162 24.7381C286.162 24.1271 285.946 23.5398 285.559 23.1003L283.337 20.5725" stroke="#1C186C" stroke-width="4.63957" stroke-linecap="round" stroke-linejoin="round"/>
<path d="M263.947 12.3339C263.68 10.942 263.734 9.49919 264.104 8.13575C264.473 6.7723 265.147 5.53121 266.063 4.52464C266.258 4.31002 266.489 4.13974 266.744 4.02364C266.998 3.90754 267.271 3.84792 267.547 3.84822C267.823 3.84851 268.096 3.90872 268.35 4.02537C268.605 4.14201 268.836 4.31279 269.03 4.52782L271.291 7.05563" stroke="#1C186C" stroke-width="4.63957" stroke-linecap="round" stroke-linejoin="round"/>
<path d="M281.81 6.55339C281.006 5.15662 280.582 3.53809 280.585 1.88655C280.587 0.771777 280.79 -0.331603 281.183 -1.35976C281.576 -2.38793 282.151 -3.32046 282.875 -4.10341C283.012 -4.23862 283.189 -4.31338 283.373 -4.31318C283.557 -4.31298 283.734 -4.23784 283.871 -4.10235C284.508 -3.39287 285.017 -2.55717 285.371 -1.63956C285.693 -0.968652 285.916 -0.246106 286.032 0.501303C286.076 0.956609 286.075 1.41579 286.03 1.871C285.677 3.95158 284.708 5.84635 283.273 7.26121C284.603 5.72889 286.35 4.70971 288.253 4.35596C288.668 4.31309 289.086 4.31354 289.502 4.3573C290.184 4.50409 290.842 4.76462 291.452 5.12986C292.292 5.5678 293.047 6.17897 293.675 6.92997C293.799 7.07964 293.867 7.27422 293.866 7.47592C293.866 7.67761 293.798 7.87204 293.674 8.02145C292.212 9.58572 290.249 10.4595 288.207 10.4553C286.709 10.4431 285.246 9.95863 283.993 9.05972" stroke="#1C186C" stroke-width="4.63957" stroke-linecap="round" stroke-linejoin="round"/>
<path d="M259.396 33.3018C259.627 33.5922 259.889 33.8512 260.176 34.0731C260.978 34.6348 261.875 35.0155 262.813 35.1929C263.751 35.3703 264.712 35.3408 265.639 35.1063C267.832 34.7454 269.947 33.9576 271.887 32.7802C275.534 30.8538 278.599 27.8187 280.718 24.0365C282.597 20.2337 283.663 16.012 283.834 11.6912C283.834 11.3915 284.169 9.14474 283.954 8.9947L281.79 6.5526C281.654 6.31703 279.624 6.55027 279.351 6.65698C275.391 6.76617 271.508 7.88295 268.008 9.91922C264.536 12.1626 261.738 15.4699 259.957 19.4342C258.236 23.3489 256.277 29.5746 259.396 33.3018Z" stroke="#1C186C" stroke-width="4.63957" stroke-linecap="round" stroke-linejoin="round"/>
<path d="M272.982 30.834C272.194 27.9126 270.77 25.2451 268.834 23.0608C266.889 20.8818 264.484 19.2621 261.833 18.3449" stroke="#1C186C" stroke-width="4.63957" stroke-linecap="round" stroke-linejoin="round"/>
<path d="M264.551 30.7604C264.733 30.9677 264.951 31.1327 265.192 31.2455C265.434 31.3583 265.693 31.4166 265.956 31.4168C266.218 31.4171 266.478 31.3594 266.719 31.2471C266.961 31.1349 267.179 30.9703 267.361 30.7634C267.628 30.4614 267.807 30.0801 267.877 29.6673C267.947 29.2544 267.904 28.8281 267.755 28.4415C267.606 28.0548 267.356 27.725 267.037 27.4929C266.717 27.2609 266.343 27.137 265.96 27.1366C265.577 27.1361 265.203 27.2593 264.883 27.4906C264.563 27.722 264.313 28.0513 264.163 28.4376C264.012 28.8239 263.969 29.2501 264.038 29.6631C264.107 30.0762 264.286 30.4578 264.551 30.7604Z" fill="#201D67"/>
<path d="M80.8525 24.6768L72.8574 0.463059L64.8102 24.6595" stroke="#1C186C" stroke-width="4.63957" stroke-linecap="round" stroke-linejoin="round"/>
<path d="M60.7872 25.7471C61.1189 25.7474 61.4117 25.7263 61.685 25.6838C63.8322 25.3009 64.1268 23.5463 66.82 23.5492C69.845 23.5524 69.8427 25.7568 72.8286 25.76C75.8536 25.7633 75.856 23.5589 78.842 23.5621C81.5352 23.565 81.8066 25.2988 83.9724 25.7078C84.2261 25.7509 84.5383 25.7726 84.8701 25.7729" stroke="#1C186C" stroke-width="4.63957" stroke-linecap="round" stroke-linejoin="round"/>
<path d="M62.7929 29.0455C62.7942 27.8898 62.9516 26.7343 63.2845 25.6859C65.1389 25.3027 65.375 23.548 67.6779 23.5505C70.2736 23.5533 70.2712 25.7577 72.8278 25.7604C75.4235 25.7632 75.4258 23.5588 77.9824 23.5616C80.2854 23.5641 80.5372 25.2979 82.3713 25.7065C82.6824 26.7555 82.8568 27.9113 82.8556 29.067C82.849 35.145 78.355 40.0626 72.8124 40.0566C67.2698 40.0506 62.7864 35.1235 62.7929 29.0455Z" stroke="#1C186C" stroke-width="4.63957" stroke-linecap="round" stroke-linejoin="round"/>
<path d="M62.8007 22.4545L82.8633 22.4761" stroke="#1C186C" stroke-width="4.63957" stroke-linecap="round" stroke-linejoin="round"/>
<path d="M101.969 166.69C96.5632 166.321 91.16 163.725 86.891 158.97C82.6611 154.257 80.3451 148.262 80.0003 142.269" stroke="#1C186C" stroke-width="4.63957" stroke-linecap="round" stroke-linejoin="round"/>
<path d="M77.7793 140.876L80.1805 140.237L104.544 133.735C107.823 132.861 110.689 136.075 109.865 139.712L108.14 147.415L108.022 147.907L106.512 154.604L106.375 155.246L103.825 166.479L103.198 169.218C102.61 171.849 100.285 173.538 97.9049 173.107C92.0512 172.052 86.5508 169.093 82.1649 164.208C77.7985 159.367 75.1704 153.265 74.221 146.779C73.8336 144.125 75.3977 141.516 77.7793 140.876Z" stroke="#1C186C" stroke-width="4.63957" stroke-linecap="round" stroke-linejoin="round"/>
<path d="M92.4864 147.739C90.7619 147.737 89.3621 149.288 89.3601 151.203C89.358 153.117 90.7544 154.671 92.479 154.673C94.2035 154.675 95.6032 153.124 95.6053 151.209C95.6073 149.294 94.211 147.741 92.4864 147.739Z" stroke="#1C186C" stroke-width="4.63957" stroke-linecap="round" stroke-linejoin="round"/>
<path d="M104.038 149.058C105.112 147.861 106.655 147.478 108.02 147.95L106.059 156.68C105.318 156.486 104.616 156.1 104.031 155.457C102.432 153.679 102.435 150.812 104.038 149.058Z" stroke="#1C186C" stroke-width="4.63957" stroke-linecap="round" stroke-linejoin="round"/>
<path d="M101.592 136.855C101.884 138.097 101.589 139.466 100.73 140.428C99.4205 141.882 97.3127 141.88 96.0067 140.423C95.5779 139.952 95.2858 139.374 95.1498 138.753" stroke="#1C186C" stroke-width="4.63957" stroke-linecap="round" stroke-linejoin="round"/>
<path d="M175.904 87.3063L195.912 65.4127C198.042 63.0822 198.046 59.3156 195.921 56.9805C193.797 54.6455 190.362 54.6418 188.232 56.9722L168.224 78.8659C166.094 81.1964 166.09 84.963 168.215 87.2981C170.34 89.6331 173.775 89.6368 175.904 87.3063Z" stroke="#1C186C" stroke-width="4.63957" stroke-linecap="round" stroke-linejoin="round"/>
<path d="M191.72 62.4974C189.414 65.0203 188.596 64.1205 186.271 66.6434C183.965 69.1663 184.784 70.066 182.478 72.6103C180.172 75.1332 179.334 74.2335 177.028 76.7564C174.723 79.2793 175.542 80.2004 173.236 82.7233" stroke="#1C186C" stroke-width="4.63957" stroke-linecap="round" stroke-linejoin="round"/>
<path d="M182.811 89.8399L198.207 72.992C200.767 70.1912 200.772 65.6755 198.218 62.8691L173.599 89.8086C176.133 92.6363 180.27 92.6407 182.811 89.8399Z" stroke="#1C186C" stroke-width="4.63957" stroke-linecap="round" stroke-linejoin="round"/>
<path d="M181.327 54.4398L165.93 71.2877C163.371 74.0885 163.366 78.6042 165.919 81.4106L190.539 54.4711C188.005 51.6434 183.867 51.639 181.327 54.4398Z" stroke="#1C186C" stroke-width="4.63957" stroke-linecap="round" stroke-linejoin="round"/>
<path d="M279.581 135.977L299.097 135.998C302.571 136.001 305.378 139.086 305.374 142.896L305.369 147.005L273.285 146.97L273.289 142.861C273.293 139.052 276.107 135.973 279.581 135.977Z" stroke="#1C186C" stroke-width="4.63957" stroke-linecap="round" stroke-linejoin="round"/>
<path d="M274.274 153.564L304.368 153.596C306.026 153.598 307.375 152.123 307.377 150.304C307.379 148.485 306.034 147.007 304.375 147.005L274.281 146.972C272.622 146.971 271.274 148.446 271.272 150.265C271.27 152.084 272.615 153.562 274.274 153.564Z" stroke="#1C186C" stroke-width="4.63957" stroke-linecap="round" stroke-linejoin="round"/>
<path d="M288.267 171.171L290.336 171.173C298.63 171.182 305.352 163.827 305.361 154.731L305.363 153.597L273.278 153.562L273.277 154.697C273.267 163.792 279.973 171.162 288.267 171.171Z" stroke="#1C186C" stroke-width="4.63957" stroke-linecap="round" stroke-linejoin="round"/>
<path d="M305.586 146.471C304.826 145.571 304.281 144.351 302.856 144.349C301.431 144.347 300.884 145.567 300.121 146.465" stroke="#1C186C" stroke-width="4.63957" stroke-linecap="round" stroke-linejoin="round"/>
<path d="M287.26 146.451C286.5 145.551 285.954 144.331 284.53 144.329C283.086 144.328 282.538 145.547 281.776 146.445" stroke="#1C186C" stroke-width="4.63957" stroke-linecap="round" stroke-linejoin="round"/>
<path d="M275.337 144.341C276.762 144.342 277.307 145.563 278.067 146.462" stroke="#1C186C" stroke-width="4.63957" stroke-linecap="round" stroke-linejoin="round"/>
<path d="M296.413 146.461C295.653 145.561 295.108 144.341 293.683 144.339C292.258 144.338 291.711 145.557 290.949 146.455" stroke="#1C186C" stroke-width="4.63957" stroke-linecap="round" stroke-linejoin="round"/>
</g>
<g filter="url(#filter0_d_1_15899)">
<rect x="66" y="151" width="439.733" height="68" rx="14.2342" fill="white"/>
</g>
<path d="M95.3177 180.626V184.416H99.4497V185.636H95.3177V189.54H99.9377V190.76H93.8374V179.405H99.9377V180.626H95.3177ZM107.009 181.683C108.094 181.683 108.972 182.014 109.645 182.675C110.317 183.326 110.653 184.269 110.653 185.506V190.76H109.189V185.717C109.189 184.828 108.967 184.15 108.522 183.684C108.077 183.207 107.47 182.968 106.7 182.968C105.919 182.968 105.296 183.212 104.829 183.7C104.374 184.188 104.146 184.898 104.146 185.831V190.76H102.666V181.846H104.146V183.114C104.439 182.659 104.835 182.307 105.334 182.057C105.843 181.808 106.402 181.683 107.009 181.683ZM115.365 183.066V188.32C115.365 188.754 115.457 189.063 115.642 189.247C115.826 189.421 116.146 189.508 116.601 189.508H117.691V190.76H116.357C115.533 190.76 114.915 190.57 114.503 190.191C114.091 189.811 113.885 189.188 113.885 188.32V183.066H112.73V181.846H113.885V179.601H115.365V181.846H117.691V183.066H115.365ZM128.107 185.961C128.107 186.243 128.091 186.542 128.058 186.856H120.933C120.987 187.734 121.285 188.423 121.827 188.922C122.381 189.41 123.048 189.654 123.828 189.654C124.468 189.654 125 189.508 125.423 189.215C125.856 188.911 126.16 188.51 126.334 188.011H127.928C127.689 188.868 127.212 189.567 126.496 190.11C125.781 190.641 124.891 190.907 123.828 190.907C122.982 190.907 122.223 190.717 121.551 190.337C120.889 189.958 120.369 189.421 119.989 188.727C119.61 188.022 119.42 187.208 119.42 186.287C119.42 185.365 119.604 184.557 119.973 183.863C120.342 183.169 120.857 182.637 121.518 182.269C122.191 181.889 122.961 181.699 123.828 181.699C124.674 181.699 125.423 181.884 126.073 182.252C126.724 182.621 127.223 183.131 127.57 183.781C127.928 184.421 128.107 185.148 128.107 185.961ZM126.578 185.652C126.578 185.088 126.453 184.606 126.203 184.204C125.954 183.792 125.612 183.483 125.179 183.277C124.756 183.06 124.284 182.952 123.763 182.952C123.015 182.952 122.375 183.19 121.844 183.668C121.323 184.145 121.025 184.806 120.949 185.652H126.578ZM132.029 183.293C132.289 182.784 132.658 182.388 133.135 182.106C133.623 181.824 134.214 181.683 134.909 181.683V183.212H134.518C132.859 183.212 132.029 184.112 132.029 185.912V190.76H130.549V181.846H132.029V183.293ZM149.869 179.422L146.176 186.482V190.76H144.696V186.482L140.987 179.422H142.63L145.428 185.164L148.226 179.422H149.869ZM155.807 190.907C154.971 190.907 154.212 190.717 153.529 190.337C152.857 189.958 152.325 189.421 151.935 188.727C151.555 188.022 151.365 187.208 151.365 186.287C151.365 185.376 151.561 184.573 151.951 183.879C152.352 183.174 152.895 182.637 153.578 182.269C154.261 181.889 155.026 181.699 155.872 181.699C156.718 181.699 157.482 181.889 158.165 182.269C158.849 182.637 159.385 183.169 159.776 183.863C160.177 184.557 160.378 185.365 160.378 186.287C160.378 187.208 160.172 188.022 159.76 188.727C159.358 189.421 158.811 189.958 158.117 190.337C157.422 190.717 156.652 190.907 155.807 190.907ZM155.807 189.605C156.338 189.605 156.837 189.481 157.303 189.231C157.769 188.982 158.144 188.608 158.426 188.109C158.718 187.61 158.865 187.002 158.865 186.287C158.865 185.571 158.724 184.964 158.442 184.465C158.16 183.966 157.791 183.597 157.336 183.358C156.88 183.109 156.387 182.984 155.855 182.984C155.313 182.984 154.814 183.109 154.359 183.358C153.914 183.597 153.556 183.966 153.285 184.465C153.014 184.964 152.878 185.571 152.878 186.287C152.878 187.013 153.008 187.626 153.269 188.125C153.54 188.624 153.898 188.998 154.342 189.247C154.787 189.486 155.275 189.605 155.807 189.605ZM170.718 181.846V190.76H169.238V189.443C168.956 189.898 168.56 190.256 168.05 190.516C167.551 190.766 166.998 190.89 166.391 190.89C165.697 190.89 165.073 190.749 164.52 190.467C163.967 190.175 163.528 189.741 163.203 189.166C162.888 188.591 162.731 187.892 162.731 187.068V181.846H164.195V186.872C164.195 187.751 164.417 188.429 164.862 188.906C165.307 189.372 165.914 189.605 166.684 189.605C167.476 189.605 168.099 189.361 168.555 188.873C169.01 188.385 169.238 187.675 169.238 186.742V181.846H170.718ZM175.186 183.293C175.446 182.784 175.815 182.388 176.292 182.106C176.78 181.824 177.371 181.683 178.065 181.683V183.212H177.675C176.016 183.212 175.186 184.112 175.186 185.912V190.76H173.706V181.846H175.186V183.293ZM186.568 180.626V184.416H190.7V185.636H186.568V189.54H191.188V190.76H185.087V179.405H191.188V180.626H186.568ZM204.636 181.683C205.33 181.683 205.948 181.829 206.491 182.122C207.033 182.404 207.461 182.832 207.776 183.407C208.09 183.982 208.248 184.682 208.248 185.506V190.76H206.783V185.717C206.783 184.828 206.561 184.15 206.116 183.684C205.683 183.207 205.092 182.968 204.343 182.968C203.573 182.968 202.961 183.217 202.505 183.716C202.05 184.204 201.822 184.915 201.822 185.847V190.76H200.358V185.717C200.358 184.828 200.135 184.15 199.691 183.684C199.257 183.207 198.666 182.968 197.918 182.968C197.148 182.968 196.535 183.217 196.079 183.716C195.624 184.204 195.396 184.915 195.396 185.847V190.76H193.916V181.846H195.396V183.131C195.689 182.664 196.079 182.307 196.567 182.057C197.066 181.808 197.614 181.683 198.21 181.683C198.959 181.683 199.62 181.851 200.195 182.187C200.77 182.523 201.198 183.017 201.48 183.668C201.73 183.039 202.142 182.551 202.717 182.203C203.291 181.856 203.931 181.683 204.636 181.683ZM210.611 186.27C210.611 185.359 210.795 184.562 211.164 183.879C211.533 183.185 212.037 182.648 212.677 182.269C213.327 181.889 214.049 181.699 214.84 181.699C215.621 181.699 216.299 181.867 216.874 182.203C217.449 182.54 217.877 182.963 218.159 183.472V181.846H219.656V190.76H218.159V189.101C217.866 189.622 217.427 190.055 216.841 190.402C216.266 190.739 215.594 190.907 214.824 190.907C214.032 190.907 213.317 190.711 212.677 190.321C212.037 189.931 211.533 189.383 211.164 188.678C210.795 187.973 210.611 187.171 210.611 186.27ZM218.159 186.287C218.159 185.614 218.023 185.029 217.752 184.53C217.481 184.031 217.112 183.651 216.646 183.391C216.191 183.12 215.686 182.984 215.133 182.984C214.58 182.984 214.076 183.114 213.62 183.375C213.165 183.635 212.801 184.015 212.53 184.513C212.259 185.012 212.124 185.598 212.124 186.27C212.124 186.954 212.259 187.55 212.53 188.06C212.801 188.559 213.165 188.944 213.62 189.215C214.076 189.475 214.58 189.605 215.133 189.605C215.686 189.605 216.191 189.475 216.646 189.215C217.112 188.944 217.481 188.559 217.752 188.06C218.023 187.55 218.159 186.959 218.159 186.287ZM223.41 180.398C223.128 180.398 222.889 180.3 222.694 180.105C222.499 179.91 222.401 179.671 222.401 179.389C222.401 179.107 222.499 178.869 222.694 178.673C222.889 178.478 223.128 178.381 223.41 178.381C223.681 178.381 223.909 178.478 224.093 178.673C224.288 178.869 224.386 179.107 224.386 179.389C224.386 179.671 224.288 179.91 224.093 180.105C223.909 180.3 223.681 180.398 223.41 180.398ZM224.126 181.846V190.76H222.645V181.846H224.126ZM228.617 178.722V190.76H227.137V178.722H228.617ZM243.155 188.239H238.21L237.299 190.76H235.737L239.837 179.487H241.545L245.628 190.76H244.066L243.155 188.239ZM242.732 187.035L240.683 181.309L238.633 187.035H242.732ZM247.35 186.27C247.35 185.359 247.534 184.562 247.903 183.879C248.271 183.185 248.776 182.648 249.416 182.269C250.066 181.889 250.793 181.699 251.595 181.699C252.29 181.699 252.935 181.862 253.531 182.187C254.128 182.502 254.583 182.919 254.898 183.44V178.722H256.394V190.76H254.898V189.085C254.605 189.616 254.171 190.055 253.596 190.402C253.022 190.739 252.349 190.907 251.579 190.907C250.787 190.907 250.066 190.711 249.416 190.321C248.776 189.931 248.271 189.383 247.903 188.678C247.534 187.973 247.35 187.171 247.35 186.27ZM254.898 186.287C254.898 185.614 254.762 185.029 254.491 184.53C254.22 184.031 253.851 183.651 253.385 183.391C252.929 183.12 252.425 182.984 251.872 182.984C251.319 182.984 250.815 183.114 250.359 183.375C249.904 183.635 249.54 184.015 249.269 184.513C248.998 185.012 248.862 185.598 248.862 186.27C248.862 186.954 248.998 187.55 249.269 188.06C249.54 188.559 249.904 188.944 250.359 189.215C250.815 189.475 251.319 189.605 251.872 189.605C252.425 189.605 252.929 189.475 253.385 189.215C253.851 188.944 254.22 188.559 254.491 188.06C254.762 187.55 254.898 186.959 254.898 186.287ZM258.831 186.27C258.831 185.359 259.015 184.562 259.384 183.879C259.753 183.185 260.257 182.648 260.897 182.269C261.548 181.889 262.274 181.699 263.077 181.699C263.771 181.699 264.416 181.862 265.013 182.187C265.609 182.502 266.065 182.919 266.379 183.44V178.722H267.876V190.76H266.379V189.085C266.086 189.616 265.653 190.055 265.078 190.402C264.503 190.739 263.831 190.907 263.061 190.907C262.269 190.907 261.548 190.711 260.897 190.321C260.257 189.931 259.753 189.383 259.384 188.678C259.015 187.973 258.831 187.171 258.831 186.27ZM266.379 186.287C266.379 185.614 266.244 185.029 265.972 184.53C265.701 184.031 265.333 183.651 264.866 183.391C264.411 183.12 263.906 182.984 263.353 182.984C262.8 182.984 262.296 183.114 261.84 183.375C261.385 183.635 261.022 184.015 260.751 184.513C260.479 185.012 260.344 185.598 260.344 186.27C260.344 186.954 260.479 187.55 260.751 188.06C261.022 188.559 261.385 188.944 261.84 189.215C262.296 189.475 262.8 189.605 263.353 189.605C263.906 189.605 264.411 189.475 264.866 189.215C265.333 188.944 265.701 188.559 265.972 188.06C266.244 187.55 266.379 186.959 266.379 186.287ZM272.346 183.293C272.606 182.784 272.975 182.388 273.452 182.106C273.94 181.824 274.531 181.683 275.225 181.683V183.212H274.835C273.175 183.212 272.346 184.112 272.346 185.912V190.76H270.865V181.846H272.346V183.293ZM285.556 185.961C285.556 186.243 285.54 186.542 285.507 186.856H278.382C278.436 187.734 278.734 188.423 279.277 188.922C279.83 189.41 280.497 189.654 281.278 189.654C281.917 189.654 282.449 189.508 282.872 189.215C283.306 188.911 283.609 188.51 283.783 188.011H285.377C285.138 188.868 284.661 189.567 283.945 190.11C283.23 190.641 282.34 190.907 281.278 190.907C280.432 190.907 279.672 190.717 279 190.337C278.338 189.958 277.818 189.421 277.438 188.727C277.059 188.022 276.869 187.208 276.869 186.287C276.869 185.365 277.053 184.557 277.422 183.863C277.791 183.169 278.306 182.637 278.967 182.269C279.64 181.889 280.41 181.699 281.278 181.699C282.123 181.699 282.872 181.884 283.522 182.252C284.173 182.621 284.672 183.131 285.019 183.781C285.377 184.421 285.556 185.148 285.556 185.961ZM284.027 185.652C284.027 185.088 283.902 184.606 283.653 184.204C283.403 183.792 283.062 183.483 282.628 183.277C282.205 183.06 281.733 182.952 281.212 182.952C280.464 182.952 279.824 183.19 279.293 183.668C278.772 184.145 278.474 184.806 278.398 185.652H284.027ZM291.154 190.907C290.471 190.907 289.858 190.793 289.316 190.565C288.773 190.326 288.345 190.001 288.03 189.589C287.716 189.166 287.542 188.683 287.51 188.141H289.039C289.082 188.586 289.289 188.949 289.657 189.231C290.037 189.513 290.53 189.654 291.138 189.654C291.702 189.654 292.146 189.529 292.472 189.28C292.797 189.03 292.96 188.716 292.96 188.336C292.96 187.946 292.786 187.659 292.439 187.474C292.092 187.279 291.555 187.089 290.829 186.905C290.167 186.731 289.625 186.558 289.202 186.384C288.79 186.2 288.432 185.934 288.128 185.587C287.835 185.229 287.689 184.763 287.689 184.188C287.689 183.733 287.824 183.315 288.096 182.936C288.367 182.556 288.752 182.258 289.251 182.041C289.749 181.813 290.319 181.699 290.959 181.699C291.946 181.699 292.743 181.949 293.35 182.447C293.957 182.946 294.283 183.63 294.326 184.497H292.846C292.813 184.031 292.623 183.657 292.276 183.375C291.94 183.093 291.485 182.952 290.91 182.952C290.378 182.952 289.955 183.066 289.641 183.293C289.326 183.521 289.169 183.819 289.169 184.188C289.169 184.481 289.261 184.725 289.446 184.92C289.641 185.105 289.88 185.256 290.162 185.376C290.454 185.484 290.856 185.609 291.365 185.75C292.005 185.923 292.526 186.097 292.927 186.27C293.328 186.433 293.67 186.683 293.952 187.019C294.245 187.355 294.397 187.794 294.407 188.336C294.407 188.824 294.272 189.264 294.001 189.654C293.73 190.044 293.345 190.354 292.846 190.581C292.358 190.798 291.794 190.907 291.154 190.907ZM300.141 190.907C299.458 190.907 298.845 190.793 298.303 190.565C297.761 190.326 297.332 190.001 297.018 189.589C296.703 189.166 296.53 188.683 296.497 188.141H298.026C298.07 188.586 298.276 188.949 298.644 189.231C299.024 189.513 299.517 189.654 300.125 189.654C300.689 189.654 301.133 189.529 301.459 189.28C301.784 189.03 301.947 188.716 301.947 188.336C301.947 187.946 301.773 187.659 301.426 187.474C301.079 187.279 300.542 187.089 299.816 186.905C299.154 186.731 298.612 186.558 298.189 186.384C297.777 186.2 297.419 185.934 297.115 185.587C296.822 185.229 296.676 184.763 296.676 184.188C296.676 183.733 296.812 183.315 297.083 182.936C297.354 182.556 297.739 182.258 298.238 182.041C298.737 181.813 299.306 181.699 299.946 181.699C300.933 181.699 301.73 181.949 302.337 182.447C302.945 182.946 303.27 183.63 303.313 184.497H301.833C301.8 184.031 301.611 183.657 301.264 183.375C300.927 183.093 300.472 182.952 299.897 182.952C299.366 182.952 298.943 183.066 298.628 183.293C298.314 183.521 298.156 183.819 298.156 184.188C298.156 184.481 298.249 184.725 298.433 184.92C298.628 185.105 298.867 185.256 299.149 185.376C299.442 185.484 299.843 185.609 300.353 185.75C300.992 185.923 301.513 186.097 301.914 186.27C302.316 186.433 302.657 186.683 302.939 187.019C303.232 187.355 303.384 187.794 303.395 188.336C303.395 188.824 303.259 189.264 302.988 189.654C302.717 190.044 302.332 190.354 301.833 190.581C301.345 190.798 300.781 190.907 300.141 190.907Z" fill="#878787"/>
<rect x="367.015" y="158.253" width="132.373" height="53.4427" rx="11.2531" fill="#6C5FBC"/>
<path d="M396.886 189.77C396.198 189.77 395.578 189.652 395.027 189.416C394.476 189.17 394.044 188.826 393.729 188.383C393.414 187.941 393.257 187.424 393.257 186.834H395.057C395.096 187.277 395.268 187.641 395.573 187.926C395.888 188.211 396.325 188.354 396.886 188.354C397.466 188.354 397.919 188.216 398.243 187.941C398.568 187.655 398.73 187.291 398.73 186.849C398.73 186.505 398.627 186.224 398.42 186.008C398.223 185.792 397.973 185.624 397.668 185.506C397.373 185.388 396.96 185.261 396.429 185.123C395.76 184.946 395.214 184.769 394.791 184.592C394.378 184.405 394.024 184.12 393.729 183.736C393.434 183.353 393.286 182.841 393.286 182.202C393.286 181.612 393.434 181.096 393.729 180.653C394.024 180.21 394.437 179.871 394.968 179.635C395.499 179.399 396.114 179.281 396.812 179.281C397.806 179.281 398.617 179.532 399.246 180.033C399.886 180.525 400.24 181.204 400.308 182.069H398.45C398.42 181.695 398.243 181.376 397.919 181.11C397.594 180.845 397.166 180.712 396.635 180.712C396.153 180.712 395.76 180.835 395.455 181.081C395.15 181.327 394.998 181.681 394.998 182.143C394.998 182.458 395.091 182.718 395.278 182.925C395.475 183.122 395.721 183.279 396.016 183.397C396.311 183.515 396.714 183.643 397.225 183.78C397.904 183.967 398.455 184.154 398.878 184.341C399.31 184.528 399.674 184.818 399.969 185.211C400.274 185.595 400.426 186.111 400.426 186.76C400.426 187.282 400.284 187.773 399.999 188.236C399.723 188.698 399.315 189.072 398.774 189.357C398.243 189.632 397.614 189.77 396.886 189.77ZM404.52 179.414V185.949C404.52 186.726 404.722 187.311 405.125 187.704C405.538 188.098 406.109 188.295 406.836 188.295C407.574 188.295 408.144 188.098 408.548 187.704C408.961 187.311 409.167 186.726 409.167 185.949V179.414H410.849V185.919C410.849 186.755 410.667 187.464 410.303 188.044C409.939 188.624 409.452 189.057 408.843 189.342C408.233 189.627 407.559 189.77 406.822 189.77C406.084 189.77 405.41 189.627 404.801 189.342C404.201 189.057 403.724 188.624 403.37 188.044C403.016 187.464 402.839 186.755 402.839 185.919V179.414H404.52ZM418.969 184.4C419.52 184.498 419.987 184.789 420.37 185.27C420.754 185.752 420.946 186.298 420.946 186.908C420.946 187.429 420.808 187.901 420.533 188.324C420.267 188.737 419.879 189.067 419.367 189.312C418.856 189.548 418.261 189.667 417.582 189.667H413.481V179.414H417.39C418.089 179.414 418.689 179.532 419.19 179.768C419.692 180.004 420.07 180.324 420.326 180.727C420.582 181.12 420.71 181.563 420.71 182.054C420.71 182.645 420.552 183.136 420.238 183.53C419.923 183.923 419.5 184.213 418.969 184.4ZM415.163 183.721H417.243C417.794 183.721 418.222 183.599 418.526 183.353C418.841 183.097 418.998 182.733 418.998 182.261C418.998 181.799 418.841 181.44 418.526 181.184C418.222 180.919 417.794 180.786 417.243 180.786H415.163V183.721ZM417.435 188.295C418.005 188.295 418.453 188.157 418.777 187.882C419.102 187.606 419.264 187.223 419.264 186.731C419.264 186.229 419.092 185.831 418.748 185.536C418.403 185.241 417.946 185.093 417.376 185.093H415.163V188.295H417.435ZM426.594 189.77C425.906 189.77 425.286 189.652 424.735 189.416C424.185 189.17 423.752 188.826 423.437 188.383C423.122 187.941 422.965 187.424 422.965 186.834H424.765C424.804 187.277 424.976 187.641 425.281 187.926C425.596 188.211 426.033 188.354 426.594 188.354C427.174 188.354 427.627 188.216 427.951 187.941C428.276 187.655 428.438 187.291 428.438 186.849C428.438 186.505 428.335 186.224 428.128 186.008C427.932 185.792 427.681 185.624 427.376 185.506C427.081 185.388 426.668 185.261 426.137 185.123C425.468 184.946 424.922 184.769 424.499 184.592C424.086 184.405 423.732 184.12 423.437 183.736C423.142 183.353 422.995 182.841 422.995 182.202C422.995 181.612 423.142 181.096 423.437 180.653C423.732 180.21 424.145 179.871 424.676 179.635C425.207 179.399 425.822 179.281 426.52 179.281C427.514 179.281 428.325 179.532 428.954 180.033C429.594 180.525 429.948 181.204 430.016 182.069H428.158C428.128 181.695 427.951 181.376 427.627 181.11C427.302 180.845 426.874 180.712 426.343 180.712C425.861 180.712 425.468 180.835 425.163 181.081C424.858 181.327 424.706 181.681 424.706 182.143C424.706 182.458 424.799 182.718 424.986 182.925C425.183 183.122 425.429 183.279 425.724 183.397C426.019 183.515 426.422 183.643 426.933 183.78C427.612 183.967 428.163 184.154 428.586 184.341C429.018 184.528 429.382 184.818 429.677 185.211C429.982 185.595 430.134 186.111 430.134 186.76C430.134 187.282 429.992 187.773 429.707 188.236C429.431 188.698 429.023 189.072 428.482 189.357C427.951 189.632 427.322 189.77 426.594 189.77ZM432.001 184.518C432.001 183.515 432.232 182.615 432.694 181.818C433.166 181.022 433.801 180.402 434.597 179.96C435.404 179.507 436.284 179.281 437.238 179.281C438.329 179.281 439.298 179.552 440.144 180.092C441 180.624 441.619 181.381 442.003 182.364H439.982C439.716 181.823 439.347 181.42 438.875 181.155C438.403 180.889 437.857 180.756 437.238 180.756C436.559 180.756 435.954 180.909 435.423 181.214C434.892 181.518 434.474 181.956 434.169 182.527C433.874 183.097 433.727 183.761 433.727 184.518C433.727 185.275 433.874 185.939 434.169 186.51C434.474 187.08 434.892 187.523 435.423 187.837C435.954 188.142 436.559 188.295 437.238 188.295C437.857 188.295 438.403 188.162 438.875 187.896C439.347 187.631 439.716 187.228 439.982 186.687H442.003C441.619 187.67 441 188.427 440.144 188.958C439.298 189.489 438.329 189.755 437.238 189.755C436.274 189.755 435.394 189.534 434.597 189.091C433.801 188.639 433.166 188.014 432.694 187.218C432.232 186.421 432.001 185.521 432.001 184.518ZM449.739 189.667L447.379 185.565H446.095V189.667H444.414V179.414H447.954C448.741 179.414 449.405 179.552 449.946 179.827C450.496 180.102 450.905 180.471 451.17 180.933C451.446 181.396 451.583 181.912 451.583 182.482C451.583 183.151 451.387 183.761 450.993 184.312C450.61 184.852 450.015 185.221 449.208 185.418L451.745 189.667H449.739ZM446.095 184.223H447.954C448.584 184.223 449.056 184.066 449.37 183.751C449.695 183.436 449.857 183.013 449.857 182.482C449.857 181.951 449.7 181.538 449.385 181.243C449.07 180.938 448.593 180.786 447.954 180.786H446.095V184.223ZM455.859 179.414V189.667H454.177V179.414H455.859ZM463.997 184.4C464.548 184.498 465.015 184.789 465.399 185.27C465.782 185.752 465.974 186.298 465.974 186.908C465.974 187.429 465.836 187.901 465.561 188.324C465.295 188.737 464.907 189.067 464.395 189.312C463.884 189.548 463.289 189.667 462.61 189.667H458.509V179.414H462.419C463.117 179.414 463.717 179.532 464.218 179.768C464.72 180.004 465.099 180.324 465.354 180.727C465.61 181.12 465.738 181.563 465.738 182.054C465.738 182.645 465.581 183.136 465.266 183.53C464.951 183.923 464.528 184.213 463.997 184.4ZM460.191 183.721H462.271C462.822 183.721 463.25 183.599 463.555 183.353C463.869 183.097 464.027 182.733 464.027 182.261C464.027 181.799 463.869 181.44 463.555 181.184C463.25 180.919 462.822 180.786 462.271 180.786H460.191V183.721ZM462.463 188.295C463.033 188.295 463.481 188.157 463.805 187.882C464.13 187.606 464.292 187.223 464.292 186.731C464.292 186.229 464.12 185.831 463.776 185.536C463.432 185.241 462.974 185.093 462.404 185.093H460.191V188.295H462.463ZM469.926 180.771V183.78H473.466V185.152H469.926V188.295H473.909V189.667H468.244V179.399H473.909V180.771H469.926Z" fill="#F7F8FA"/>
<path d="M101.846 80.89C101.052 79.5833 99.9558 78.58 98.5558 77.88C97.2024 77.18 95.5924 76.83 93.7258 76.83C90.2724 76.83 87.5424 77.95 85.5358 80.19C83.5758 82.43 82.5958 85.44 82.5958 89.22C82.5958 93.4667 83.6458 96.71 85.7458 98.95C87.8924 101.143 90.9958 102.24 95.0558 102.24C99.8624 102.24 103.292 100.07 105.346 95.73H91.5558V85.86H117.176V99.16C116.102 101.773 114.516 104.223 112.416 106.51C110.362 108.797 107.749 110.687 104.576 112.18C101.402 113.627 97.7858 114.35 93.7258 114.35C88.7791 114.35 84.3924 113.3 80.5658 111.2C76.7858 109.053 73.8458 106.09 71.7458 102.31C69.6924 98.4833 68.6658 94.12 68.6658 89.22C68.6658 84.3667 69.6924 80.05 71.7458 76.27C73.8458 72.4433 76.7858 69.48 80.5658 67.38C84.3458 65.2333 88.7091 64.16 93.6558 64.16C99.8624 64.16 104.996 65.6533 109.056 68.64C113.116 71.6267 115.636 75.71 116.616 80.89H101.846ZM137.044 75.64V83.69H152.794V94.12H137.044V103.01H154.894V114H123.324V64.65H154.894V75.64H137.044ZM198.844 64.65V75.57H185.684V114H171.964V75.57H158.944V64.65H198.844ZM253.368 74.94H232.368V82.71C233.255 81.7767 234.468 81.03 236.008 80.47C237.548 79.91 239.252 79.63 241.118 79.63C244.478 79.63 247.278 80.4 249.518 81.94C251.805 83.48 253.485 85.51 254.558 88.03C255.632 90.55 256.168 93.3033 256.168 96.29C256.168 101.797 254.605 106.137 251.478 109.31C248.352 112.437 244.012 114 238.458 114C234.585 114 231.225 113.347 228.378 112.04C225.578 110.687 223.432 108.82 221.938 106.44C220.445 104.06 219.675 101.33 219.628 98.25H232.998C233.138 99.3233 233.605 100.257 234.398 101.05C235.192 101.843 236.358 102.24 237.898 102.24C239.532 102.24 240.768 101.68 241.608 100.56C242.448 99.44 242.868 97.9467 242.868 96.08C242.868 94.26 242.425 92.8833 241.538 91.95C240.652 90.97 239.368 90.48 237.688 90.48C236.428 90.48 235.402 90.8067 234.608 91.46C233.862 92.0667 233.418 92.8367 233.278 93.77H219.908V62.83H253.368V74.94ZM261.998 87.68C261.998 79.6533 263.631 73.33 266.898 68.71C270.164 64.09 275.298 61.78 282.298 61.78C289.298 61.78 294.431 64.09 297.698 68.71C301.011 73.33 302.668 79.6533 302.668 87.68C302.668 95.8 301.034 102.17 297.768 106.79C294.501 111.41 289.344 113.72 282.298 113.72C275.251 113.72 270.094 111.41 266.828 106.79C263.608 102.17 261.998 95.8 261.998 87.68ZM289.088 87.68C289.088 83.48 288.644 80.2833 287.758 78.09C286.871 75.85 285.051 74.73 282.298 74.73C279.544 74.73 277.724 75.85 276.838 78.09C275.951 80.2833 275.508 83.48 275.508 87.68C275.508 91.9733 275.928 95.24 276.768 97.48C277.654 99.6733 279.498 100.77 282.298 100.77C285.098 100.77 286.918 99.6733 287.758 97.48C288.644 95.24 289.088 91.9733 289.088 87.68ZM307.093 75.99C307.093 72.0233 308.213 68.99 310.453 66.89C312.693 64.79 315.633 63.74 319.273 63.74C322.867 63.74 325.783 64.79 328.023 66.89C330.263 68.99 331.383 72.0233 331.383 75.99C331.383 79.91 330.263 82.9433 328.023 85.09C325.783 87.19 322.867 88.24 319.273 88.24C315.68 88.24 312.74 87.19 310.453 85.09C308.213 82.9433 307.093 79.91 307.093 75.99ZM356.793 64.51L330.263 114H317.103L343.633 64.51H356.793ZM319.203 71.79C317.29 71.79 316.333 73.19 316.333 75.99C316.333 78.79 317.29 80.19 319.203 80.19C320.137 80.19 320.86 79.84 321.373 79.14C321.933 78.44 322.213 77.39 322.213 75.99C322.213 74.59 321.933 73.54 321.373 72.84C320.86 72.14 320.137 71.79 319.203 71.79ZM342.513 102.45C342.513 98.53 343.633 95.52 345.873 93.42C348.16 91.2733 351.1 90.2 354.693 90.2C358.287 90.2 361.18 91.2733 363.373 93.42C365.613 95.52 366.733 98.53 366.733 102.45C366.733 106.417 365.613 109.473 363.373 111.62C361.18 113.72 358.287 114.77 354.693 114.77C351.1 114.77 348.16 113.72 345.873 111.62C343.633 109.473 342.513 106.417 342.513 102.45ZM354.623 98.25C352.663 98.25 351.683 99.65 351.683 102.45C351.683 105.297 352.663 106.72 354.623 106.72C355.51 106.72 356.21 106.37 356.723 105.67C357.283 104.923 357.563 103.85 357.563 102.45C357.563 101.097 357.283 100.07 356.723 99.37C356.21 98.6233 355.51 98.25 354.623 98.25Z" fill="white"/>
</g>
<defs>
<filter id="filter0_d_1_15899" x="20.6667" y="112.92" width="530.4" height="158.667" filterUnits="userSpaceOnUse" color-interpolation-filters="sRGB">
<feFlood flood-opacity="0" result="BackgroundImageFix"/>
<feColorMatrix in="SourceAlpha" type="matrix" values="0 0 0 0 0 0 0 0 0 0 0 0 0 0 0 0 0 0 127 0" result="hardAlpha"/>
<feOffset dy="7.25333"/>
<feGaussianBlur stdDeviation="22.6667"/>
<feComposite in2="hardAlpha" operator="out"/>
<feColorMatrix type="matrix" values="0 0 0 0 0 0 0 0 0 0 0 0 0 0 0 0 0 0 0.1 0"/>
<feBlend mode="normal" in2="BackgroundImageFix" result="effect1_dropShadow_1_15899"/>
<feBlend mode="normal" in="SourceGraphic" in2="effect1_dropShadow_1_15899" result="shape"/>
</filter>
</defs>
</svg>
